G75*
%MOIN*%
%OFA0B0*%
%FSLAX25Y25*%
%IPPOS*%
%LPD*%
%AMOC8*
5,1,8,0,0,1.08239X$1,22.5*
%
%ADD10R,0.05600X0.05600*%
%ADD11C,0.05600*%
%ADD12R,0.05500X0.05500*%
%ADD13C,0.05500*%
%ADD14R,0.06000X0.06000*%
%ADD15C,0.06000*%
%ADD16OC8,0.06337*%
%ADD17OC8,0.05600*%
%ADD18OC8,0.06000*%
%ADD19C,0.06000*%
%ADD20C,0.01000*%
%ADD21C,0.04165*%
%ADD22C,0.02000*%
%ADD23C,0.01600*%
D10*
X0413342Y0056256D03*
X0413342Y0161256D03*
X0413342Y0266256D03*
X0413342Y0371256D03*
X0413342Y0476256D03*
D11*
X0413342Y0486256D03*
X0413342Y0496256D03*
X0413342Y0506256D03*
X0413342Y0516256D03*
X0413342Y0526256D03*
X0413342Y0536256D03*
X0413342Y0546256D03*
X0413342Y0556256D03*
X0383342Y0556256D03*
X0383342Y0546256D03*
X0383342Y0536256D03*
X0383342Y0526256D03*
X0383342Y0516256D03*
X0383342Y0506256D03*
X0383342Y0496256D03*
X0383342Y0486256D03*
X0383342Y0476256D03*
X0383342Y0451256D03*
X0383342Y0441256D03*
X0383342Y0431256D03*
X0383342Y0421256D03*
X0383342Y0411256D03*
X0383342Y0401256D03*
X0383342Y0391256D03*
X0383342Y0381256D03*
X0383342Y0371256D03*
X0383342Y0346256D03*
X0383342Y0336256D03*
X0383342Y0326256D03*
X0383342Y0316256D03*
X0383342Y0306256D03*
X0383342Y0296256D03*
X0383342Y0286256D03*
X0383342Y0276256D03*
X0383342Y0266256D03*
X0383342Y0241256D03*
X0383342Y0231256D03*
X0383342Y0221256D03*
X0383342Y0211256D03*
X0383342Y0201256D03*
X0383342Y0191256D03*
X0383342Y0181256D03*
X0383342Y0171256D03*
X0383342Y0161256D03*
X0383342Y0136256D03*
X0383342Y0126256D03*
X0383342Y0116256D03*
X0383342Y0106256D03*
X0383342Y0096256D03*
X0383342Y0086256D03*
X0383342Y0076256D03*
X0383342Y0066256D03*
X0383342Y0056256D03*
X0413342Y0066256D03*
X0413342Y0076256D03*
X0413342Y0086256D03*
X0413342Y0096256D03*
X0413342Y0106256D03*
X0413342Y0116256D03*
X0413342Y0126256D03*
X0413342Y0136256D03*
X0413342Y0171256D03*
X0413342Y0181256D03*
X0413342Y0191256D03*
X0413342Y0201256D03*
X0413342Y0211256D03*
X0413342Y0221256D03*
X0413342Y0231256D03*
X0413342Y0241256D03*
X0413342Y0276256D03*
X0413342Y0286256D03*
X0413342Y0296256D03*
X0413342Y0306256D03*
X0413342Y0316256D03*
X0413342Y0326256D03*
X0413342Y0336256D03*
X0413342Y0346256D03*
X0413342Y0381256D03*
X0413342Y0391256D03*
X0413342Y0401256D03*
X0413342Y0411256D03*
X0413342Y0421256D03*
X0413342Y0431256D03*
X0413342Y0441256D03*
X0413342Y0451256D03*
D12*
X0438342Y0431256D03*
X0438342Y0536256D03*
X0438342Y0326256D03*
X0438342Y0221256D03*
X0438342Y0116256D03*
X0118342Y0161256D03*
X0118342Y0266256D03*
X0118342Y0371256D03*
X0118342Y0476256D03*
X0118342Y0056256D03*
D13*
X0118342Y0066256D03*
X0118342Y0076256D03*
X0118342Y0086256D03*
X0118342Y0096256D03*
X0118342Y0106256D03*
X0118342Y0116256D03*
X0118342Y0126256D03*
X0088342Y0126256D03*
X0088342Y0116256D03*
X0088342Y0106256D03*
X0088342Y0096256D03*
X0088342Y0086256D03*
X0088342Y0076256D03*
X0088342Y0066256D03*
X0088342Y0056256D03*
X0088342Y0161256D03*
X0088342Y0171256D03*
X0088342Y0181256D03*
X0088342Y0191256D03*
X0088342Y0201256D03*
X0088342Y0211256D03*
X0088342Y0221256D03*
X0088342Y0231256D03*
X0118342Y0231256D03*
X0118342Y0221256D03*
X0118342Y0211256D03*
X0118342Y0201256D03*
X0118342Y0191256D03*
X0118342Y0181256D03*
X0118342Y0171256D03*
X0088342Y0266256D03*
X0088342Y0276256D03*
X0088342Y0286256D03*
X0088342Y0296256D03*
X0088342Y0306256D03*
X0088342Y0316256D03*
X0088342Y0326256D03*
X0088342Y0336256D03*
X0118342Y0336256D03*
X0118342Y0326256D03*
X0118342Y0316256D03*
X0118342Y0306256D03*
X0118342Y0296256D03*
X0118342Y0286256D03*
X0118342Y0276256D03*
X0088342Y0371256D03*
X0088342Y0381256D03*
X0088342Y0391256D03*
X0088342Y0401256D03*
X0088342Y0411256D03*
X0088342Y0421256D03*
X0088342Y0431256D03*
X0088342Y0441256D03*
X0118342Y0441256D03*
X0118342Y0431256D03*
X0118342Y0421256D03*
X0118342Y0411256D03*
X0118342Y0401256D03*
X0118342Y0391256D03*
X0118342Y0381256D03*
X0088342Y0476256D03*
X0088342Y0486256D03*
X0088342Y0496256D03*
X0088342Y0506256D03*
X0088342Y0516256D03*
X0088342Y0526256D03*
X0088342Y0536256D03*
X0088342Y0546256D03*
X0118342Y0546256D03*
X0118342Y0536256D03*
X0118342Y0526256D03*
X0118342Y0516256D03*
X0118342Y0506256D03*
X0118342Y0496256D03*
X0118342Y0486256D03*
X0438342Y0486256D03*
X0438342Y0496256D03*
X0438342Y0506256D03*
X0438342Y0516256D03*
X0438342Y0526256D03*
X0468342Y0526256D03*
X0468342Y0536256D03*
X0468342Y0516256D03*
X0468342Y0506256D03*
X0468342Y0496256D03*
X0468342Y0486256D03*
X0468342Y0476256D03*
X0468342Y0466256D03*
X0438342Y0466256D03*
X0438342Y0476256D03*
X0468342Y0431256D03*
X0468342Y0421256D03*
X0468342Y0411256D03*
X0468342Y0401256D03*
X0468342Y0391256D03*
X0468342Y0381256D03*
X0468342Y0371256D03*
X0468342Y0361256D03*
X0438342Y0361256D03*
X0438342Y0371256D03*
X0438342Y0381256D03*
X0438342Y0391256D03*
X0438342Y0401256D03*
X0438342Y0411256D03*
X0438342Y0421256D03*
X0468342Y0326256D03*
X0468342Y0316256D03*
X0468342Y0306256D03*
X0468342Y0296256D03*
X0468342Y0286256D03*
X0468342Y0276256D03*
X0468342Y0266256D03*
X0468342Y0256256D03*
X0438342Y0256256D03*
X0438342Y0266256D03*
X0438342Y0276256D03*
X0438342Y0286256D03*
X0438342Y0296256D03*
X0438342Y0306256D03*
X0438342Y0316256D03*
X0468342Y0221256D03*
X0468342Y0211256D03*
X0468342Y0201256D03*
X0468342Y0191256D03*
X0468342Y0181256D03*
X0468342Y0171256D03*
X0468342Y0161256D03*
X0468342Y0151256D03*
X0438342Y0151256D03*
X0438342Y0161256D03*
X0438342Y0171256D03*
X0438342Y0181256D03*
X0438342Y0191256D03*
X0438342Y0201256D03*
X0438342Y0211256D03*
X0468342Y0116256D03*
X0468342Y0106256D03*
X0468342Y0096256D03*
X0468342Y0086256D03*
X0468342Y0076256D03*
X0468342Y0066256D03*
X0468342Y0056256D03*
X0468342Y0046256D03*
X0438342Y0046256D03*
X0438342Y0056256D03*
X0438342Y0066256D03*
X0438342Y0076256D03*
X0438342Y0086256D03*
X0438342Y0096256D03*
X0438342Y0106256D03*
D14*
X0148342Y0126256D03*
X0148342Y0231256D03*
X0148342Y0336256D03*
X0148342Y0441256D03*
X0148342Y0546256D03*
D15*
X0148342Y0536256D03*
X0148342Y0526256D03*
X0148342Y0516256D03*
X0148342Y0506256D03*
X0148342Y0496256D03*
X0148342Y0486256D03*
X0148342Y0476256D03*
X0148342Y0466256D03*
X0178342Y0466256D03*
X0178342Y0476256D03*
X0178342Y0486256D03*
X0178342Y0496256D03*
X0178342Y0506256D03*
X0178342Y0516256D03*
X0178342Y0526256D03*
X0178342Y0536256D03*
X0178342Y0546256D03*
X0178342Y0441256D03*
X0178342Y0431256D03*
X0178342Y0421256D03*
X0178342Y0411256D03*
X0178342Y0401256D03*
X0178342Y0391256D03*
X0178342Y0381256D03*
X0178342Y0371256D03*
X0178342Y0361256D03*
X0178342Y0336256D03*
X0178342Y0326256D03*
X0178342Y0316256D03*
X0178342Y0306256D03*
X0178342Y0296256D03*
X0178342Y0286256D03*
X0178342Y0276256D03*
X0178342Y0266256D03*
X0178342Y0256256D03*
X0178342Y0231256D03*
X0178342Y0221256D03*
X0178342Y0211256D03*
X0178342Y0201256D03*
X0178342Y0191256D03*
X0178342Y0181256D03*
X0178342Y0171256D03*
X0178342Y0161256D03*
X0178342Y0151256D03*
X0178342Y0126256D03*
X0178342Y0116256D03*
X0178342Y0106256D03*
X0178342Y0096256D03*
X0178342Y0086256D03*
X0178342Y0076256D03*
X0178342Y0066256D03*
X0178342Y0056256D03*
X0178342Y0046256D03*
X0148342Y0046256D03*
X0148342Y0056256D03*
X0148342Y0066256D03*
X0148342Y0076256D03*
X0148342Y0086256D03*
X0148342Y0096256D03*
X0148342Y0106256D03*
X0148342Y0116256D03*
X0148342Y0151256D03*
X0148342Y0161256D03*
X0148342Y0171256D03*
X0148342Y0181256D03*
X0148342Y0191256D03*
X0148342Y0201256D03*
X0148342Y0211256D03*
X0148342Y0221256D03*
X0148342Y0256256D03*
X0148342Y0266256D03*
X0148342Y0276256D03*
X0148342Y0286256D03*
X0148342Y0296256D03*
X0148342Y0306256D03*
X0148342Y0316256D03*
X0148342Y0326256D03*
X0148342Y0361256D03*
X0148342Y0371256D03*
X0148342Y0381256D03*
X0148342Y0391256D03*
X0148342Y0401256D03*
X0148342Y0411256D03*
X0148342Y0421256D03*
X0148342Y0431256D03*
D16*
X0273342Y0421256D03*
X0283342Y0421256D03*
X0283342Y0411256D03*
X0283342Y0401256D03*
X0283342Y0391256D03*
X0283342Y0381256D03*
X0283342Y0371256D03*
X0283342Y0361256D03*
X0283342Y0351256D03*
X0283342Y0341256D03*
X0283342Y0331256D03*
X0283342Y0321256D03*
X0283342Y0311256D03*
X0283342Y0301256D03*
X0283342Y0291256D03*
X0283342Y0281256D03*
X0283342Y0271256D03*
X0283342Y0261256D03*
X0283342Y0251256D03*
X0283342Y0241256D03*
X0283342Y0231256D03*
X0283342Y0221256D03*
X0283342Y0211256D03*
X0283342Y0201256D03*
X0283342Y0191256D03*
X0283342Y0181256D03*
X0273342Y0181256D03*
X0273342Y0191256D03*
X0273342Y0201256D03*
X0273342Y0211256D03*
X0273342Y0221256D03*
X0273342Y0231256D03*
X0273342Y0241256D03*
X0273342Y0251256D03*
X0273342Y0261256D03*
X0273342Y0271256D03*
X0273342Y0281256D03*
X0273342Y0291256D03*
X0273342Y0301256D03*
X0273342Y0311256D03*
X0273342Y0321256D03*
X0273342Y0331256D03*
X0273342Y0341256D03*
X0273342Y0351256D03*
X0273342Y0361256D03*
X0273342Y0371256D03*
X0273342Y0381256D03*
X0273342Y0391256D03*
X0273342Y0401256D03*
X0273342Y0411256D03*
D17*
X0273342Y0076256D03*
X0293342Y0061256D03*
X0303342Y0061256D03*
X0318342Y0076256D03*
X0338342Y0061256D03*
X0348342Y0061256D03*
X0318342Y0046256D03*
X0273342Y0046256D03*
X0248342Y0061256D03*
X0238342Y0061256D03*
X0218342Y0076256D03*
X0218342Y0046256D03*
D18*
X0048342Y0551256D03*
X0038342Y0551256D03*
X0038342Y0561256D03*
X0048342Y0561256D03*
X0518342Y0571256D03*
X0528342Y0571256D03*
X0528342Y0581256D03*
X0518342Y0581256D03*
D19*
X0078342Y0559256D02*
X0078342Y0553256D01*
X0068342Y0553256D02*
X0068342Y0559256D01*
X0058342Y0559256D02*
X0058342Y0553256D01*
X0518342Y0014256D02*
X0518342Y0008256D01*
X0528342Y0008256D02*
X0528342Y0014256D01*
X0538342Y0014256D02*
X0538342Y0008256D01*
D20*
X0528342Y0041256D02*
X0498342Y0011256D01*
X0348342Y0011256D01*
X0068342Y0011256D01*
X0038342Y0041256D01*
X0038342Y0046256D01*
X0038342Y0151256D01*
X0038342Y0256256D01*
X0038342Y0361256D01*
X0038342Y0466256D01*
X0038342Y0551256D01*
X0043342Y0546256D02*
X0043342Y0556256D01*
X0048342Y0561256D01*
X0048342Y0551256D02*
X0053342Y0546256D01*
X0053342Y0531256D01*
X0053342Y0506256D01*
X0053342Y0451256D01*
X0053342Y0401256D01*
X0053342Y0346256D01*
X0053342Y0296256D01*
X0053342Y0241256D01*
X0053342Y0191256D01*
X0053342Y0136256D01*
X0053342Y0086256D01*
X0053342Y0046256D01*
X0078342Y0021256D01*
X0248342Y0021256D01*
X0303342Y0021256D01*
X0488342Y0021256D01*
X0503342Y0036256D01*
X0513342Y0046256D01*
X0513342Y0086256D01*
X0513342Y0141256D01*
X0513342Y0191256D01*
X0513342Y0246256D01*
X0513342Y0296256D01*
X0513342Y0351256D01*
X0513342Y0401256D01*
X0513342Y0456256D01*
X0513342Y0506256D01*
X0513342Y0561256D01*
X0508342Y0566256D01*
X0508342Y0571256D01*
X0513342Y0576256D01*
X0523342Y0576256D01*
X0528342Y0571256D01*
X0518342Y0571256D02*
X0518342Y0561256D01*
X0528342Y0551256D01*
X0528342Y0446256D01*
X0528342Y0341256D01*
X0528342Y0236256D01*
X0528342Y0131256D01*
X0528342Y0041256D01*
X0518342Y0041256D02*
X0493342Y0016256D01*
X0263342Y0016256D01*
X0073342Y0016256D01*
X0048342Y0041256D01*
X0048342Y0056256D01*
X0048342Y0116256D01*
X0048342Y0161256D01*
X0048342Y0221256D01*
X0048342Y0266256D01*
X0048342Y0326256D01*
X0048342Y0371256D01*
X0048342Y0431256D01*
X0048342Y0476256D01*
X0048342Y0526256D01*
X0048342Y0541256D01*
X0043342Y0546256D01*
X0058342Y0546256D02*
X0058342Y0556256D01*
X0068342Y0556256D02*
X0068342Y0541256D01*
X0073342Y0536256D01*
X0078342Y0536256D01*
X0083342Y0541256D01*
X0093342Y0541256D01*
X0098342Y0536256D01*
X0098342Y0521256D01*
X0093342Y0516256D01*
X0088342Y0516256D01*
X0083342Y0516256D01*
X0073342Y0506256D01*
X0073342Y0446256D01*
X0083342Y0436256D01*
X0093342Y0436256D01*
X0098342Y0431256D01*
X0098342Y0416256D01*
X0093342Y0411256D01*
X0088342Y0411256D01*
X0083342Y0411256D01*
X0073342Y0401256D01*
X0073342Y0341256D01*
X0083342Y0331256D01*
X0093342Y0331256D01*
X0098342Y0326256D01*
X0098342Y0311256D01*
X0093342Y0306256D01*
X0088342Y0306256D01*
X0083342Y0306256D01*
X0073342Y0296256D01*
X0073342Y0236256D01*
X0083342Y0226256D01*
X0093342Y0226256D01*
X0098342Y0221256D01*
X0098342Y0206256D01*
X0093342Y0201256D01*
X0088342Y0201256D01*
X0083342Y0201256D01*
X0073342Y0191256D01*
X0073342Y0131256D01*
X0083342Y0121256D01*
X0093342Y0121256D01*
X0098342Y0116256D01*
X0098342Y0101256D01*
X0093342Y0096256D01*
X0088342Y0096256D01*
X0083342Y0096256D01*
X0073342Y0086256D01*
X0073342Y0046256D01*
X0088342Y0031256D01*
X0478342Y0031256D01*
X0498342Y0051256D01*
X0498342Y0561256D01*
X0503342Y0566256D02*
X0503342Y0046256D01*
X0483342Y0026256D01*
X0083342Y0026256D01*
X0068342Y0041256D01*
X0068342Y0096256D01*
X0078342Y0106256D01*
X0068342Y0116256D01*
X0068342Y0201256D01*
X0078342Y0211256D01*
X0068342Y0221256D01*
X0068342Y0306256D01*
X0078342Y0316256D01*
X0088342Y0316256D01*
X0078342Y0316256D02*
X0068342Y0326256D01*
X0068342Y0411256D01*
X0078342Y0421256D01*
X0068342Y0431256D01*
X0068342Y0516256D01*
X0078342Y0526256D01*
X0058342Y0546256D01*
X0078342Y0556256D02*
X0103342Y0556256D01*
X0108342Y0551256D01*
X0108342Y0506256D01*
X0098342Y0496256D01*
X0088342Y0496256D01*
X0083342Y0501256D02*
X0093342Y0501256D01*
X0103342Y0511256D01*
X0103342Y0541256D01*
X0098342Y0546256D01*
X0088342Y0546256D01*
X0088342Y0526256D02*
X0078342Y0526256D01*
X0083342Y0501256D02*
X0078342Y0496256D01*
X0078342Y0476256D01*
X0108342Y0446256D01*
X0108342Y0401256D01*
X0098342Y0391256D01*
X0088342Y0391256D01*
X0083342Y0396256D02*
X0093342Y0396256D01*
X0103342Y0406256D01*
X0103342Y0436256D01*
X0098342Y0441256D01*
X0088342Y0441256D01*
X0088342Y0421256D02*
X0078342Y0421256D01*
X0083342Y0396256D02*
X0078342Y0391256D01*
X0078342Y0371256D01*
X0108342Y0341256D01*
X0108342Y0296256D01*
X0098342Y0286256D01*
X0088342Y0286256D01*
X0083342Y0291256D02*
X0093342Y0291256D01*
X0103342Y0301256D01*
X0103342Y0331256D01*
X0098342Y0336256D01*
X0088342Y0336256D01*
X0113342Y0341256D02*
X0113342Y0291256D01*
X0098342Y0276256D01*
X0088342Y0276256D01*
X0078342Y0286256D02*
X0083342Y0291256D01*
X0078342Y0286256D02*
X0078342Y0266256D01*
X0108342Y0236256D01*
X0108342Y0191256D01*
X0098342Y0181256D01*
X0088342Y0181256D01*
X0083342Y0186256D02*
X0093342Y0186256D01*
X0103342Y0196256D01*
X0103342Y0226256D01*
X0098342Y0231256D01*
X0088342Y0231256D01*
X0088342Y0211256D02*
X0078342Y0211256D01*
X0083342Y0186256D02*
X0078342Y0181256D01*
X0078342Y0161256D01*
X0108342Y0131256D01*
X0108342Y0086256D01*
X0098342Y0076256D01*
X0088342Y0076256D01*
X0083342Y0081256D02*
X0093342Y0081256D01*
X0103342Y0091256D01*
X0103342Y0121256D01*
X0098342Y0126256D01*
X0088342Y0126256D01*
X0088342Y0106256D02*
X0078342Y0106256D01*
X0083342Y0081256D02*
X0078342Y0076256D01*
X0078342Y0051256D01*
X0093342Y0036256D01*
X0473342Y0036256D01*
X0493342Y0056256D01*
X0493342Y0571256D01*
X0488342Y0561256D02*
X0483342Y0556256D01*
X0483342Y0501256D01*
X0478342Y0496256D01*
X0483342Y0491256D01*
X0483342Y0396256D01*
X0478342Y0391256D01*
X0483342Y0386256D01*
X0483342Y0291256D01*
X0478342Y0286256D01*
X0483342Y0281256D01*
X0483342Y0186256D01*
X0478342Y0181256D01*
X0483342Y0176256D01*
X0483342Y0081256D01*
X0478342Y0076256D01*
X0468342Y0076256D01*
X0458342Y0071256D02*
X0463342Y0066256D01*
X0468342Y0066256D01*
X0458342Y0071256D02*
X0458342Y0086256D01*
X0463342Y0091256D01*
X0473342Y0091256D01*
X0478342Y0096256D01*
X0478342Y0166256D01*
X0473342Y0171256D01*
X0468342Y0171256D01*
X0463342Y0171256D01*
X0458342Y0176256D01*
X0458342Y0191256D01*
X0463342Y0196256D01*
X0473342Y0196256D01*
X0478342Y0201256D01*
X0478342Y0271256D01*
X0473342Y0276256D01*
X0468342Y0276256D01*
X0463342Y0276256D01*
X0458342Y0281256D01*
X0458342Y0296256D01*
X0463342Y0301256D01*
X0473342Y0301256D01*
X0478342Y0306256D01*
X0478342Y0376256D01*
X0473342Y0381256D01*
X0468342Y0381256D01*
X0463342Y0381256D01*
X0458342Y0386256D01*
X0458342Y0401256D01*
X0463342Y0406256D01*
X0473342Y0406256D01*
X0478342Y0411256D01*
X0478342Y0481256D01*
X0473342Y0486256D01*
X0468342Y0486256D01*
X0463342Y0486256D01*
X0458342Y0491256D01*
X0458342Y0506256D01*
X0463342Y0511256D01*
X0473342Y0511256D01*
X0478342Y0516256D01*
X0478342Y0561256D01*
X0483342Y0566256D01*
X0478342Y0571256D02*
X0473342Y0566256D01*
X0473342Y0521256D01*
X0468342Y0516256D01*
X0468342Y0526256D02*
X0463342Y0526256D01*
X0443342Y0546256D01*
X0413342Y0546256D01*
X0413342Y0536256D02*
X0438342Y0536256D01*
X0438342Y0526256D02*
X0413342Y0526256D01*
X0413342Y0516256D02*
X0438342Y0516256D01*
X0438342Y0506256D02*
X0413342Y0506256D01*
X0413342Y0496256D02*
X0438342Y0496256D01*
X0438342Y0486256D02*
X0413342Y0486256D01*
X0413342Y0476256D02*
X0438342Y0476256D01*
X0468342Y0466256D02*
X0473342Y0461256D01*
X0473342Y0416256D01*
X0468342Y0411256D01*
X0468342Y0421256D02*
X0463342Y0421256D01*
X0443342Y0441256D01*
X0413342Y0441256D01*
X0413342Y0431256D02*
X0438342Y0431256D01*
X0438342Y0421256D02*
X0413342Y0421256D01*
X0413342Y0411256D02*
X0438342Y0411256D01*
X0438342Y0401256D02*
X0413342Y0401256D01*
X0413342Y0391256D02*
X0438342Y0391256D01*
X0438342Y0381256D02*
X0413342Y0381256D01*
X0413342Y0371256D02*
X0438342Y0371256D01*
X0468342Y0361256D02*
X0473342Y0356256D01*
X0473342Y0311256D01*
X0468342Y0306256D01*
X0468342Y0316256D02*
X0463342Y0316256D01*
X0443342Y0336256D01*
X0413342Y0336256D01*
X0413342Y0326256D02*
X0438342Y0326256D01*
X0438342Y0316256D02*
X0413342Y0316256D01*
X0413342Y0306256D02*
X0438342Y0306256D01*
X0438342Y0296256D02*
X0413342Y0296256D01*
X0413342Y0286256D02*
X0438342Y0286256D01*
X0438342Y0276256D02*
X0413342Y0276256D01*
X0413342Y0266256D02*
X0438342Y0266256D01*
X0468342Y0256256D02*
X0473342Y0251256D01*
X0473342Y0206256D01*
X0468342Y0201256D01*
X0468342Y0211256D02*
X0463342Y0211256D01*
X0443342Y0231256D01*
X0413342Y0231256D01*
X0413342Y0221256D02*
X0438342Y0221256D01*
X0438342Y0211256D02*
X0413342Y0211256D01*
X0413342Y0201256D02*
X0438342Y0201256D01*
X0438342Y0191256D02*
X0413342Y0191256D01*
X0413342Y0181256D02*
X0438342Y0181256D01*
X0438342Y0171256D02*
X0413342Y0171256D01*
X0413342Y0161256D02*
X0438342Y0161256D01*
X0468342Y0151256D02*
X0473342Y0146256D01*
X0473342Y0101256D01*
X0468342Y0096256D01*
X0468342Y0106256D02*
X0463342Y0106256D01*
X0443342Y0126256D01*
X0413342Y0126256D01*
X0413342Y0116256D02*
X0438342Y0116256D01*
X0438342Y0106256D02*
X0413342Y0106256D01*
X0413342Y0096256D02*
X0438342Y0096256D01*
X0438342Y0086256D02*
X0413342Y0086256D01*
X0413342Y0076256D02*
X0438342Y0076256D01*
X0438342Y0066256D02*
X0413342Y0066256D01*
X0413342Y0056256D02*
X0438342Y0056256D01*
X0518342Y0056256D02*
X0518342Y0041256D01*
X0518342Y0056256D02*
X0518342Y0116256D01*
X0518342Y0161256D01*
X0518342Y0221256D01*
X0518342Y0266256D01*
X0518342Y0326256D01*
X0518342Y0371256D01*
X0518342Y0431256D01*
X0518342Y0476256D01*
X0518342Y0536256D01*
X0478342Y0496256D02*
X0468342Y0496256D01*
X0468342Y0391256D02*
X0478342Y0391256D01*
X0478342Y0286256D02*
X0468342Y0286256D01*
X0468342Y0181256D02*
X0478342Y0181256D01*
X0338342Y0141256D02*
X0338342Y0241256D01*
X0288342Y0291256D01*
X0283342Y0291256D01*
X0283342Y0301256D02*
X0288342Y0301256D01*
X0343342Y0356256D01*
X0343342Y0491256D01*
X0288342Y0546256D01*
X0278342Y0546256D01*
X0178342Y0546256D01*
X0178342Y0536256D02*
X0278342Y0536256D01*
X0288342Y0536256D01*
X0338342Y0486256D01*
X0338342Y0361256D01*
X0288342Y0311256D01*
X0283342Y0311256D01*
X0283342Y0321256D02*
X0288342Y0321256D01*
X0333342Y0366256D01*
X0333342Y0481256D01*
X0288342Y0526256D01*
X0278342Y0526256D01*
X0178342Y0526256D01*
X0178342Y0516256D02*
X0278342Y0516256D01*
X0288342Y0516256D01*
X0328342Y0476256D01*
X0328342Y0371256D01*
X0288342Y0331256D01*
X0283342Y0331256D01*
X0283342Y0341256D02*
X0288342Y0341256D01*
X0323342Y0376256D01*
X0323342Y0471256D01*
X0288342Y0506256D01*
X0278342Y0506256D01*
X0178342Y0506256D01*
X0178342Y0496256D02*
X0278342Y0496256D01*
X0288342Y0496256D01*
X0318342Y0466256D01*
X0318342Y0381256D01*
X0288342Y0351256D01*
X0283342Y0351256D01*
X0273342Y0361256D02*
X0218342Y0361256D01*
X0193342Y0336256D01*
X0178342Y0336256D01*
X0178342Y0326256D02*
X0203342Y0326256D01*
X0218342Y0341256D01*
X0273342Y0341256D01*
X0273342Y0321256D02*
X0218342Y0321256D01*
X0213342Y0316256D01*
X0178342Y0316256D01*
X0178342Y0306256D02*
X0213342Y0306256D01*
X0218342Y0301256D01*
X0273342Y0301256D01*
X0273342Y0281256D02*
X0218342Y0281256D01*
X0203342Y0296256D01*
X0178342Y0296256D01*
X0178342Y0286256D02*
X0203342Y0286256D01*
X0218342Y0271256D01*
X0258342Y0271256D01*
X0268342Y0261256D01*
X0273342Y0261256D01*
X0283342Y0261256D02*
X0288342Y0261256D01*
X0323342Y0226256D01*
X0323342Y0156256D01*
X0283342Y0116256D01*
X0278342Y0116256D01*
X0178342Y0116256D01*
X0178342Y0106256D02*
X0278342Y0106256D01*
X0283342Y0106256D01*
X0328342Y0151256D01*
X0328342Y0231256D01*
X0288342Y0271256D01*
X0283342Y0271256D01*
X0283342Y0281256D02*
X0278342Y0281256D01*
X0283342Y0281256D02*
X0288342Y0281256D01*
X0333342Y0236256D01*
X0333342Y0146256D01*
X0283342Y0096256D01*
X0278342Y0096256D01*
X0178342Y0096256D01*
X0178342Y0086256D02*
X0278342Y0086256D01*
X0283342Y0086256D01*
X0338342Y0141256D01*
X0318342Y0161256D02*
X0318342Y0221256D01*
X0288342Y0251256D01*
X0283342Y0251256D01*
X0273342Y0241256D02*
X0268342Y0241256D01*
X0248342Y0261256D01*
X0218342Y0261256D01*
X0203342Y0276256D01*
X0178342Y0276256D01*
X0178342Y0266256D02*
X0203342Y0266256D01*
X0218342Y0251256D01*
X0238342Y0251256D01*
X0268342Y0221256D01*
X0273342Y0221256D01*
X0283342Y0221256D02*
X0288342Y0221256D01*
X0313342Y0196256D01*
X0313342Y0166256D01*
X0283342Y0136256D01*
X0278342Y0136256D01*
X0258342Y0136256D01*
X0233342Y0161256D01*
X0178342Y0161256D01*
X0178342Y0171256D02*
X0233342Y0171256D01*
X0258342Y0146256D01*
X0278342Y0146256D01*
X0283342Y0146256D01*
X0308342Y0171256D01*
X0308342Y0191256D01*
X0288342Y0211256D01*
X0283342Y0211256D01*
X0283342Y0201256D02*
X0288342Y0201256D01*
X0298342Y0191256D01*
X0298342Y0171256D01*
X0283342Y0156256D01*
X0278342Y0156256D01*
X0258342Y0156256D01*
X0233342Y0181256D01*
X0178342Y0181256D01*
X0178342Y0191256D02*
X0233342Y0191256D01*
X0258342Y0166256D01*
X0278342Y0166256D01*
X0283342Y0166256D01*
X0293342Y0176256D01*
X0293342Y0186256D01*
X0288342Y0191256D01*
X0283342Y0191256D01*
X0283342Y0181256D02*
X0283342Y0176256D01*
X0278342Y0171256D01*
X0263342Y0171256D01*
X0233342Y0201256D01*
X0178342Y0201256D01*
X0178342Y0211256D02*
X0233342Y0211256D01*
X0263342Y0181256D01*
X0273342Y0181256D01*
X0273342Y0191256D02*
X0263342Y0191256D01*
X0233342Y0221256D01*
X0178342Y0221256D01*
X0178342Y0231256D02*
X0233342Y0231256D01*
X0263342Y0201256D01*
X0273342Y0201256D01*
X0318342Y0161256D02*
X0283342Y0126256D01*
X0278342Y0126256D01*
X0178342Y0126256D01*
X0148342Y0126256D02*
X0148342Y0131256D01*
X0143342Y0136256D01*
X0118342Y0136256D01*
X0113342Y0131256D01*
X0113342Y0081256D01*
X0098342Y0066256D01*
X0088342Y0066256D01*
X0118342Y0066256D02*
X0148342Y0066256D01*
X0148342Y0056256D02*
X0118342Y0056256D01*
X0118342Y0076256D02*
X0148342Y0076256D01*
X0148342Y0086256D02*
X0118342Y0086256D01*
X0118342Y0096256D02*
X0148342Y0096256D01*
X0148342Y0106256D02*
X0118342Y0106256D01*
X0118342Y0116256D02*
X0148342Y0116256D01*
X0148342Y0161256D02*
X0118342Y0161256D01*
X0118342Y0171256D02*
X0148342Y0171256D01*
X0148342Y0181256D02*
X0118342Y0181256D01*
X0113342Y0186256D02*
X0113342Y0236256D01*
X0118342Y0241256D01*
X0143342Y0241256D01*
X0148342Y0236256D01*
X0148342Y0231256D01*
X0148342Y0221256D02*
X0118342Y0221256D01*
X0118342Y0211256D02*
X0148342Y0211256D01*
X0148342Y0201256D02*
X0118342Y0201256D01*
X0118342Y0191256D02*
X0148342Y0191256D01*
X0113342Y0186256D02*
X0098342Y0171256D01*
X0088342Y0171256D01*
X0118342Y0266256D02*
X0148342Y0266256D01*
X0148342Y0276256D02*
X0118342Y0276256D01*
X0118342Y0286256D02*
X0148342Y0286256D01*
X0148342Y0296256D02*
X0118342Y0296256D01*
X0118342Y0306256D02*
X0148342Y0306256D01*
X0148342Y0316256D02*
X0118342Y0316256D01*
X0118342Y0326256D02*
X0148342Y0326256D01*
X0148342Y0336256D02*
X0148342Y0341256D01*
X0143342Y0346256D01*
X0118342Y0346256D01*
X0113342Y0341256D01*
X0118342Y0371256D02*
X0148342Y0371256D01*
X0148342Y0381256D02*
X0118342Y0381256D01*
X0118342Y0391256D02*
X0148342Y0391256D01*
X0148342Y0401256D02*
X0118342Y0401256D01*
X0113342Y0396256D02*
X0113342Y0446256D01*
X0118342Y0451256D01*
X0143342Y0451256D01*
X0148342Y0446256D01*
X0148342Y0441256D01*
X0148342Y0431256D02*
X0118342Y0431256D01*
X0118342Y0421256D02*
X0148342Y0421256D01*
X0148342Y0411256D02*
X0118342Y0411256D01*
X0113342Y0396256D02*
X0098342Y0381256D01*
X0088342Y0381256D01*
X0118342Y0476256D02*
X0148342Y0476256D01*
X0148342Y0486256D02*
X0118342Y0486256D01*
X0118342Y0496256D02*
X0148342Y0496256D01*
X0148342Y0506256D02*
X0118342Y0506256D01*
X0113342Y0501256D02*
X0113342Y0551256D01*
X0118342Y0556256D01*
X0143342Y0556256D01*
X0148342Y0551256D01*
X0148342Y0546256D01*
X0148342Y0536256D02*
X0118342Y0536256D01*
X0118342Y0526256D02*
X0148342Y0526256D01*
X0148342Y0516256D02*
X0118342Y0516256D01*
X0113342Y0501256D02*
X0098342Y0486256D01*
X0088342Y0486256D01*
X0178342Y0486256D02*
X0278342Y0486256D01*
X0288342Y0486256D01*
X0313342Y0461256D01*
X0313342Y0406256D01*
X0288342Y0381256D01*
X0283342Y0381256D01*
X0283342Y0391256D02*
X0288342Y0391256D01*
X0308342Y0411256D01*
X0308342Y0456256D01*
X0288342Y0476256D01*
X0278342Y0476256D01*
X0178342Y0476256D01*
X0178342Y0441256D02*
X0203342Y0441256D01*
X0228342Y0466256D01*
X0278342Y0466256D01*
X0288342Y0466256D01*
X0303342Y0451256D01*
X0303342Y0416256D01*
X0288342Y0401256D01*
X0283342Y0401256D01*
X0283342Y0411256D02*
X0288342Y0411256D01*
X0298342Y0421256D01*
X0298342Y0446256D01*
X0288342Y0456256D01*
X0278342Y0456256D01*
X0233342Y0456256D01*
X0208342Y0431256D01*
X0178342Y0431256D01*
X0178342Y0421256D02*
X0213342Y0421256D01*
X0238342Y0446256D01*
X0278342Y0446256D01*
X0288342Y0446256D01*
X0293342Y0441256D01*
X0293342Y0426256D01*
X0288342Y0421256D01*
X0283342Y0421256D01*
X0273342Y0421256D02*
X0228342Y0421256D01*
X0218342Y0411256D01*
X0178342Y0411256D01*
X0178342Y0401256D02*
X0223342Y0401256D01*
X0233342Y0411256D01*
X0273342Y0411256D01*
X0273342Y0401256D02*
X0238342Y0401256D01*
X0228342Y0391256D01*
X0178342Y0391256D01*
X0178342Y0381256D02*
X0233342Y0381256D01*
X0243342Y0391256D01*
X0273342Y0391256D01*
X0273342Y0371256D02*
X0178342Y0371256D01*
X0238342Y0061256D02*
X0238342Y0056256D01*
X0228342Y0046256D01*
X0218342Y0046256D01*
X0273342Y0046256D02*
X0283342Y0046256D01*
X0293342Y0056256D01*
X0293342Y0061256D01*
X0318342Y0046256D02*
X0328342Y0046256D01*
X0338342Y0056256D01*
X0338342Y0061256D01*
D21*
X0303342Y0021256D03*
X0308342Y0006256D03*
X0348342Y0011256D03*
X0278342Y0086256D03*
X0278342Y0096256D03*
X0278342Y0106256D03*
X0278342Y0116256D03*
X0278342Y0126256D03*
X0278342Y0136256D03*
X0278342Y0146256D03*
X0278342Y0156256D03*
X0278342Y0166256D03*
X0248342Y0021256D03*
X0263342Y0016256D03*
X0053342Y0086256D03*
X0048342Y0116256D03*
X0053342Y0136256D03*
X0038342Y0151256D03*
X0048342Y0161256D03*
X0053342Y0191256D03*
X0048342Y0221256D03*
X0053342Y0241256D03*
X0038342Y0256256D03*
X0048342Y0266256D03*
X0053342Y0296256D03*
X0048342Y0326256D03*
X0053342Y0346256D03*
X0038342Y0361256D03*
X0048342Y0371256D03*
X0053342Y0401256D03*
X0048342Y0431256D03*
X0053342Y0451256D03*
X0038342Y0466256D03*
X0048342Y0476256D03*
X0053342Y0506256D03*
X0048342Y0526256D03*
X0053342Y0531256D03*
X0103342Y0556256D03*
X0278342Y0546256D03*
X0278342Y0536256D03*
X0278342Y0526256D03*
X0278342Y0516256D03*
X0278342Y0506256D03*
X0278342Y0496256D03*
X0278342Y0486256D03*
X0278342Y0476256D03*
X0278342Y0466256D03*
X0278342Y0456256D03*
X0278342Y0446256D03*
X0478342Y0571256D03*
X0483342Y0566256D03*
X0488342Y0561256D03*
X0493342Y0571256D03*
X0498342Y0561256D03*
X0503342Y0566256D03*
X0528342Y0551256D03*
X0533342Y0556256D03*
X0518342Y0536256D03*
X0513342Y0506256D03*
X0518342Y0476256D03*
X0513342Y0456256D03*
X0528342Y0446256D03*
X0533342Y0451256D03*
X0518342Y0431256D03*
X0513342Y0401256D03*
X0518342Y0371256D03*
X0513342Y0351256D03*
X0528342Y0341256D03*
X0533342Y0346256D03*
X0518342Y0326256D03*
X0513342Y0296256D03*
X0518342Y0266256D03*
X0513342Y0246256D03*
X0528342Y0236256D03*
X0533342Y0241256D03*
X0518342Y0221256D03*
X0513342Y0191256D03*
X0518342Y0161256D03*
X0513342Y0141256D03*
X0528342Y0131256D03*
X0533342Y0136256D03*
X0518342Y0116256D03*
X0513342Y0086256D03*
X0518342Y0056256D03*
X0503342Y0036256D03*
X0048342Y0056256D03*
X0038342Y0046256D03*
D22*
X0033342Y0036256D02*
X0063342Y0006256D01*
X0308342Y0006256D01*
X0503342Y0006256D01*
X0533342Y0036256D01*
X0533342Y0136256D01*
X0533342Y0241256D01*
X0533342Y0346256D01*
X0533342Y0451256D01*
X0533342Y0556256D01*
X0538342Y0561256D01*
X0538342Y0586256D01*
X0533342Y0591256D01*
X0523342Y0591256D01*
X0518342Y0586256D01*
X0518342Y0581256D01*
D23*
X0033342Y0556256D02*
X0033342Y0036256D01*
X0033342Y0556256D02*
X0038342Y0561256D01*
M02*
