G75*
%MOIN*%
%OFA0B0*%
%FSLAX25Y25*%
%IPPOS*%
%LPD*%
%AMOC8*
5,1,8,0,0,1.08239X$1,22.5*
%
%ADD10R,0.06400X0.06400*%
%ADD11C,0.06400*%
%ADD12R,0.06300X0.06300*%
%ADD13C,0.06300*%
%ADD14R,0.06800X0.06800*%
%ADD15C,0.06800*%
%ADD16OC8,0.07137*%
%ADD17OC8,0.06400*%
%ADD18OC8,0.06800*%
%ADD19C,0.06800*%
%ADD20C,0.11824*%
%ADD21C,0.04965*%
D10*
X0413342Y0056256D03*
X0413342Y0161256D03*
X0413342Y0266256D03*
X0413342Y0371256D03*
X0413342Y0476256D03*
D11*
X0413342Y0486256D03*
X0413342Y0496256D03*
X0413342Y0506256D03*
X0413342Y0516256D03*
X0413342Y0526256D03*
X0413342Y0536256D03*
X0413342Y0546256D03*
X0413342Y0556256D03*
X0383342Y0556256D03*
X0383342Y0546256D03*
X0383342Y0536256D03*
X0383342Y0526256D03*
X0383342Y0516256D03*
X0383342Y0506256D03*
X0383342Y0496256D03*
X0383342Y0486256D03*
X0383342Y0476256D03*
X0383342Y0451256D03*
X0383342Y0441256D03*
X0383342Y0431256D03*
X0383342Y0421256D03*
X0383342Y0411256D03*
X0383342Y0401256D03*
X0383342Y0391256D03*
X0383342Y0381256D03*
X0383342Y0371256D03*
X0383342Y0346256D03*
X0383342Y0336256D03*
X0383342Y0326256D03*
X0383342Y0316256D03*
X0383342Y0306256D03*
X0383342Y0296256D03*
X0383342Y0286256D03*
X0383342Y0276256D03*
X0383342Y0266256D03*
X0383342Y0241256D03*
X0383342Y0231256D03*
X0383342Y0221256D03*
X0383342Y0211256D03*
X0383342Y0201256D03*
X0383342Y0191256D03*
X0383342Y0181256D03*
X0383342Y0171256D03*
X0383342Y0161256D03*
X0383342Y0136256D03*
X0383342Y0126256D03*
X0383342Y0116256D03*
X0383342Y0106256D03*
X0383342Y0096256D03*
X0383342Y0086256D03*
X0383342Y0076256D03*
X0383342Y0066256D03*
X0383342Y0056256D03*
X0413342Y0066256D03*
X0413342Y0076256D03*
X0413342Y0086256D03*
X0413342Y0096256D03*
X0413342Y0106256D03*
X0413342Y0116256D03*
X0413342Y0126256D03*
X0413342Y0136256D03*
X0413342Y0171256D03*
X0413342Y0181256D03*
X0413342Y0191256D03*
X0413342Y0201256D03*
X0413342Y0211256D03*
X0413342Y0221256D03*
X0413342Y0231256D03*
X0413342Y0241256D03*
X0413342Y0276256D03*
X0413342Y0286256D03*
X0413342Y0296256D03*
X0413342Y0306256D03*
X0413342Y0316256D03*
X0413342Y0326256D03*
X0413342Y0336256D03*
X0413342Y0346256D03*
X0413342Y0381256D03*
X0413342Y0391256D03*
X0413342Y0401256D03*
X0413342Y0411256D03*
X0413342Y0421256D03*
X0413342Y0431256D03*
X0413342Y0441256D03*
X0413342Y0451256D03*
D12*
X0438342Y0431256D03*
X0438342Y0536256D03*
X0438342Y0326256D03*
X0438342Y0221256D03*
X0438342Y0116256D03*
X0118342Y0161256D03*
X0118342Y0266256D03*
X0118342Y0371256D03*
X0118342Y0476256D03*
X0118342Y0056256D03*
D13*
X0118342Y0066256D03*
X0118342Y0076256D03*
X0118342Y0086256D03*
X0118342Y0096256D03*
X0118342Y0106256D03*
X0118342Y0116256D03*
X0118342Y0126256D03*
X0088342Y0126256D03*
X0088342Y0116256D03*
X0088342Y0106256D03*
X0088342Y0096256D03*
X0088342Y0086256D03*
X0088342Y0076256D03*
X0088342Y0066256D03*
X0088342Y0056256D03*
X0088342Y0161256D03*
X0088342Y0171256D03*
X0088342Y0181256D03*
X0088342Y0191256D03*
X0088342Y0201256D03*
X0088342Y0211256D03*
X0088342Y0221256D03*
X0088342Y0231256D03*
X0118342Y0231256D03*
X0118342Y0221256D03*
X0118342Y0211256D03*
X0118342Y0201256D03*
X0118342Y0191256D03*
X0118342Y0181256D03*
X0118342Y0171256D03*
X0088342Y0266256D03*
X0088342Y0276256D03*
X0088342Y0286256D03*
X0088342Y0296256D03*
X0088342Y0306256D03*
X0088342Y0316256D03*
X0088342Y0326256D03*
X0088342Y0336256D03*
X0118342Y0336256D03*
X0118342Y0326256D03*
X0118342Y0316256D03*
X0118342Y0306256D03*
X0118342Y0296256D03*
X0118342Y0286256D03*
X0118342Y0276256D03*
X0088342Y0371256D03*
X0088342Y0381256D03*
X0088342Y0391256D03*
X0088342Y0401256D03*
X0088342Y0411256D03*
X0088342Y0421256D03*
X0088342Y0431256D03*
X0088342Y0441256D03*
X0118342Y0441256D03*
X0118342Y0431256D03*
X0118342Y0421256D03*
X0118342Y0411256D03*
X0118342Y0401256D03*
X0118342Y0391256D03*
X0118342Y0381256D03*
X0088342Y0476256D03*
X0088342Y0486256D03*
X0088342Y0496256D03*
X0088342Y0506256D03*
X0088342Y0516256D03*
X0088342Y0526256D03*
X0088342Y0536256D03*
X0088342Y0546256D03*
X0118342Y0546256D03*
X0118342Y0536256D03*
X0118342Y0526256D03*
X0118342Y0516256D03*
X0118342Y0506256D03*
X0118342Y0496256D03*
X0118342Y0486256D03*
X0438342Y0486256D03*
X0438342Y0496256D03*
X0438342Y0506256D03*
X0438342Y0516256D03*
X0438342Y0526256D03*
X0468342Y0526256D03*
X0468342Y0536256D03*
X0468342Y0516256D03*
X0468342Y0506256D03*
X0468342Y0496256D03*
X0468342Y0486256D03*
X0468342Y0476256D03*
X0468342Y0466256D03*
X0438342Y0466256D03*
X0438342Y0476256D03*
X0468342Y0431256D03*
X0468342Y0421256D03*
X0468342Y0411256D03*
X0468342Y0401256D03*
X0468342Y0391256D03*
X0468342Y0381256D03*
X0468342Y0371256D03*
X0468342Y0361256D03*
X0438342Y0361256D03*
X0438342Y0371256D03*
X0438342Y0381256D03*
X0438342Y0391256D03*
X0438342Y0401256D03*
X0438342Y0411256D03*
X0438342Y0421256D03*
X0468342Y0326256D03*
X0468342Y0316256D03*
X0468342Y0306256D03*
X0468342Y0296256D03*
X0468342Y0286256D03*
X0468342Y0276256D03*
X0468342Y0266256D03*
X0468342Y0256256D03*
X0438342Y0256256D03*
X0438342Y0266256D03*
X0438342Y0276256D03*
X0438342Y0286256D03*
X0438342Y0296256D03*
X0438342Y0306256D03*
X0438342Y0316256D03*
X0468342Y0221256D03*
X0468342Y0211256D03*
X0468342Y0201256D03*
X0468342Y0191256D03*
X0468342Y0181256D03*
X0468342Y0171256D03*
X0468342Y0161256D03*
X0468342Y0151256D03*
X0438342Y0151256D03*
X0438342Y0161256D03*
X0438342Y0171256D03*
X0438342Y0181256D03*
X0438342Y0191256D03*
X0438342Y0201256D03*
X0438342Y0211256D03*
X0468342Y0116256D03*
X0468342Y0106256D03*
X0468342Y0096256D03*
X0468342Y0086256D03*
X0468342Y0076256D03*
X0468342Y0066256D03*
X0468342Y0056256D03*
X0468342Y0046256D03*
X0438342Y0046256D03*
X0438342Y0056256D03*
X0438342Y0066256D03*
X0438342Y0076256D03*
X0438342Y0086256D03*
X0438342Y0096256D03*
X0438342Y0106256D03*
D14*
X0148342Y0126256D03*
X0148342Y0231256D03*
X0148342Y0336256D03*
X0148342Y0441256D03*
X0148342Y0546256D03*
D15*
X0148342Y0536256D03*
X0148342Y0526256D03*
X0148342Y0516256D03*
X0148342Y0506256D03*
X0148342Y0496256D03*
X0148342Y0486256D03*
X0148342Y0476256D03*
X0148342Y0466256D03*
X0178342Y0466256D03*
X0178342Y0476256D03*
X0178342Y0486256D03*
X0178342Y0496256D03*
X0178342Y0506256D03*
X0178342Y0516256D03*
X0178342Y0526256D03*
X0178342Y0536256D03*
X0178342Y0546256D03*
X0178342Y0441256D03*
X0178342Y0431256D03*
X0178342Y0421256D03*
X0178342Y0411256D03*
X0178342Y0401256D03*
X0178342Y0391256D03*
X0178342Y0381256D03*
X0178342Y0371256D03*
X0178342Y0361256D03*
X0178342Y0336256D03*
X0178342Y0326256D03*
X0178342Y0316256D03*
X0178342Y0306256D03*
X0178342Y0296256D03*
X0178342Y0286256D03*
X0178342Y0276256D03*
X0178342Y0266256D03*
X0178342Y0256256D03*
X0178342Y0231256D03*
X0178342Y0221256D03*
X0178342Y0211256D03*
X0178342Y0201256D03*
X0178342Y0191256D03*
X0178342Y0181256D03*
X0178342Y0171256D03*
X0178342Y0161256D03*
X0178342Y0151256D03*
X0178342Y0126256D03*
X0178342Y0116256D03*
X0178342Y0106256D03*
X0178342Y0096256D03*
X0178342Y0086256D03*
X0178342Y0076256D03*
X0178342Y0066256D03*
X0178342Y0056256D03*
X0178342Y0046256D03*
X0148342Y0046256D03*
X0148342Y0056256D03*
X0148342Y0066256D03*
X0148342Y0076256D03*
X0148342Y0086256D03*
X0148342Y0096256D03*
X0148342Y0106256D03*
X0148342Y0116256D03*
X0148342Y0151256D03*
X0148342Y0161256D03*
X0148342Y0171256D03*
X0148342Y0181256D03*
X0148342Y0191256D03*
X0148342Y0201256D03*
X0148342Y0211256D03*
X0148342Y0221256D03*
X0148342Y0256256D03*
X0148342Y0266256D03*
X0148342Y0276256D03*
X0148342Y0286256D03*
X0148342Y0296256D03*
X0148342Y0306256D03*
X0148342Y0316256D03*
X0148342Y0326256D03*
X0148342Y0361256D03*
X0148342Y0371256D03*
X0148342Y0381256D03*
X0148342Y0391256D03*
X0148342Y0401256D03*
X0148342Y0411256D03*
X0148342Y0421256D03*
X0148342Y0431256D03*
D16*
X0273342Y0421256D03*
X0283342Y0421256D03*
X0283342Y0411256D03*
X0283342Y0401256D03*
X0283342Y0391256D03*
X0283342Y0381256D03*
X0283342Y0371256D03*
X0283342Y0361256D03*
X0283342Y0351256D03*
X0283342Y0341256D03*
X0283342Y0331256D03*
X0283342Y0321256D03*
X0283342Y0311256D03*
X0283342Y0301256D03*
X0283342Y0291256D03*
X0283342Y0281256D03*
X0283342Y0271256D03*
X0283342Y0261256D03*
X0283342Y0251256D03*
X0283342Y0241256D03*
X0283342Y0231256D03*
X0283342Y0221256D03*
X0283342Y0211256D03*
X0283342Y0201256D03*
X0283342Y0191256D03*
X0283342Y0181256D03*
X0273342Y0181256D03*
X0273342Y0191256D03*
X0273342Y0201256D03*
X0273342Y0211256D03*
X0273342Y0221256D03*
X0273342Y0231256D03*
X0273342Y0241256D03*
X0273342Y0251256D03*
X0273342Y0261256D03*
X0273342Y0271256D03*
X0273342Y0281256D03*
X0273342Y0291256D03*
X0273342Y0301256D03*
X0273342Y0311256D03*
X0273342Y0321256D03*
X0273342Y0331256D03*
X0273342Y0341256D03*
X0273342Y0351256D03*
X0273342Y0361256D03*
X0273342Y0371256D03*
X0273342Y0381256D03*
X0273342Y0391256D03*
X0273342Y0401256D03*
X0273342Y0411256D03*
D17*
X0273342Y0076256D03*
X0293342Y0061256D03*
X0303342Y0061256D03*
X0318342Y0076256D03*
X0338342Y0061256D03*
X0348342Y0061256D03*
X0318342Y0046256D03*
X0273342Y0046256D03*
X0248342Y0061256D03*
X0238342Y0061256D03*
X0218342Y0076256D03*
X0218342Y0046256D03*
D18*
X0048342Y0551256D03*
X0038342Y0551256D03*
X0038342Y0561256D03*
X0048342Y0561256D03*
X0518342Y0571256D03*
X0528342Y0571256D03*
X0528342Y0581256D03*
X0518342Y0581256D03*
D19*
X0078342Y0559256D02*
X0078342Y0553256D01*
X0068342Y0553256D02*
X0068342Y0559256D01*
X0058342Y0559256D02*
X0058342Y0553256D01*
X0518342Y0014256D02*
X0518342Y0008256D01*
X0528342Y0008256D02*
X0528342Y0014256D01*
X0538342Y0014256D02*
X0538342Y0008256D01*
D20*
X0363342Y0141256D03*
X0198342Y0141256D03*
X0198342Y0461256D03*
X0165442Y0577756D03*
X0363342Y0461256D03*
X0393742Y0577756D03*
D21*
X0038342Y0046256D03*
X0048342Y0056256D03*
X0053342Y0086256D03*
X0048342Y0116256D03*
X0053342Y0136256D03*
X0038342Y0151256D03*
X0048342Y0161256D03*
X0053342Y0191256D03*
X0048342Y0221256D03*
X0053342Y0241256D03*
X0038342Y0256256D03*
X0048342Y0266256D03*
X0053342Y0296256D03*
X0048342Y0326256D03*
X0053342Y0346256D03*
X0038342Y0361256D03*
X0048342Y0371256D03*
X0053342Y0401256D03*
X0048342Y0431256D03*
X0053342Y0451256D03*
X0038342Y0466256D03*
X0048342Y0476256D03*
X0053342Y0506256D03*
X0048342Y0526256D03*
X0053342Y0531256D03*
X0103342Y0556256D03*
X0278342Y0546256D03*
X0278342Y0536256D03*
X0278342Y0526256D03*
X0278342Y0516256D03*
X0278342Y0506256D03*
X0278342Y0496256D03*
X0278342Y0486256D03*
X0278342Y0476256D03*
X0278342Y0466256D03*
X0278342Y0456256D03*
X0278342Y0446256D03*
X0478342Y0571256D03*
X0483342Y0566256D03*
X0488342Y0561256D03*
X0493342Y0571256D03*
X0498342Y0561256D03*
X0503342Y0566256D03*
X0528342Y0551256D03*
X0533342Y0556256D03*
X0518342Y0536256D03*
X0513342Y0506256D03*
X0518342Y0476256D03*
X0513342Y0456256D03*
X0528342Y0446256D03*
X0533342Y0451256D03*
X0518342Y0431256D03*
X0513342Y0401256D03*
X0518342Y0371256D03*
X0513342Y0351256D03*
X0528342Y0341256D03*
X0533342Y0346256D03*
X0518342Y0326256D03*
X0513342Y0296256D03*
X0518342Y0266256D03*
X0513342Y0246256D03*
X0528342Y0236256D03*
X0533342Y0241256D03*
X0518342Y0221256D03*
X0513342Y0191256D03*
X0518342Y0161256D03*
X0513342Y0141256D03*
X0528342Y0131256D03*
X0533342Y0136256D03*
X0518342Y0116256D03*
X0513342Y0086256D03*
X0518342Y0056256D03*
X0503342Y0036256D03*
X0348342Y0011256D03*
X0308342Y0006256D03*
X0303342Y0021256D03*
X0263342Y0016256D03*
X0248342Y0021256D03*
X0278342Y0086256D03*
X0278342Y0096256D03*
X0278342Y0106256D03*
X0278342Y0116256D03*
X0278342Y0126256D03*
X0278342Y0136256D03*
X0278342Y0146256D03*
X0278342Y0156256D03*
X0278342Y0166256D03*
M02*
