%
M48
M72
T01C0.02165
T02C0.03100
T03C0.03200
T04C0.03600
T05C0.03937
T06C0.11024
%
T01
X38342Y46256
X48342Y56256
X53342Y86256
X48342Y116256
X53342Y136256
X38342Y151256
X48342Y161256
X53342Y191256
X48342Y221256
X53342Y241256
X38342Y256256
X48342Y266256
X53342Y296256
X48342Y326256
X53342Y346256
X38342Y361256
X48342Y371256
X53342Y401256
X48342Y431256
X53342Y451256
X38342Y466256
X48342Y476256
X53342Y506256
X48342Y526256
X53342Y531256
X103342Y556256
X278342Y546256
X278342Y536256
X278342Y526256
X278342Y516256
X278342Y506256
X278342Y496256
X278342Y486256
X278342Y476256
X278342Y466256
X278342Y456256
X278342Y446256
X478342Y571256
X483342Y566256
X488342Y561256
X493342Y571256
X498342Y561256
X503342Y566256
X528342Y551256
X533342Y556256
X518342Y536256
X513342Y506256
X518342Y476256
X513342Y456256
X528342Y446256
X533342Y451256
X518342Y431256
X513342Y401256
X518342Y371256
X513342Y351256
X528342Y341256
X533342Y346256
X518342Y326256
X513342Y296256
X518342Y266256
X513342Y246256
X528342Y236256
X533342Y241256
X518342Y221256
X513342Y191256
X518342Y161256
X513342Y141256
X528342Y131256
X533342Y136256
X518342Y116256
X513342Y86256
X518342Y56256
X503342Y36256
X348342Y11256
X308342Y6256
X303342Y21256
X263342Y16256
X248342Y21256
X278342Y86256
X278342Y96256
X278342Y106256
X278342Y116256
X278342Y126256
X278342Y136256
X278342Y146256
X278342Y156256
X278342Y166256
T02
X438342Y161256
X438342Y171256
X438342Y181256
X438342Y191256
X438342Y201256
X438342Y211256
X438342Y221256
X468342Y221256
X468342Y211256
X468342Y201256
X468342Y191256
X468342Y181256
X468342Y171256
X468342Y161256
X468342Y151256
X438342Y151256
X438342Y116256
X438342Y106256
X438342Y96256
X438342Y86256
X438342Y76256
X438342Y66256
X438342Y56256
X438342Y46256
X468342Y46256
X468342Y56256
X468342Y66256
X468342Y76256
X468342Y86256
X468342Y96256
X468342Y106256
X468342Y116256
X468342Y256256
X468342Y266256
X468342Y276256
X468342Y286256
X468342Y296256
X468342Y306256
X468342Y316256
X468342Y326256
X438342Y326256
X438342Y316256
X438342Y306256
X438342Y296256
X438342Y286256
X438342Y276256
X438342Y266256
X438342Y256256
X438342Y361256
X438342Y371256
X438342Y381256
X438342Y391256
X438342Y401256
X438342Y411256
X438342Y421256
X438342Y431256
X468342Y431256
X468342Y421256
X468342Y411256
X468342Y401256
X468342Y391256
X468342Y381256
X468342Y371256
X468342Y361256
X468342Y466256
X468342Y476256
X468342Y486256
X468342Y496256
X468342Y506256
X468342Y516256
X468342Y526256
X468342Y536256
X438342Y536256
X438342Y526256
X438342Y516256
X438342Y506256
X438342Y496256
X438342Y486256
X438342Y476256
X438342Y466256
X118342Y476256
X118342Y486256
X118342Y496256
X118342Y506256
X118342Y516256
X118342Y526256
X118342Y536256
X118342Y546256
X88342Y546256
X88342Y536256
X88342Y526256
X88342Y516256
X88342Y506256
X88342Y496256
X88342Y486256
X88342Y476256
X88342Y441256
X88342Y431256
X88342Y421256
X88342Y411256
X88342Y401256
X88342Y391256
X88342Y381256
X88342Y371256
X118342Y371256
X118342Y381256
X118342Y391256
X118342Y401256
X118342Y411256
X118342Y421256
X118342Y431256
X118342Y441256
X118342Y336256
X118342Y326256
X118342Y316256
X118342Y306256
X118342Y296256
X118342Y286256
X118342Y276256
X118342Y266256
X88342Y266256
X88342Y276256
X88342Y286256
X88342Y296256
X88342Y306256
X88342Y316256
X88342Y326256
X88342Y336256
X88342Y231256
X88342Y221256
X88342Y211256
X88342Y201256
X88342Y191256
X88342Y181256
X88342Y171256
X88342Y161256
X118342Y161256
X118342Y171256
X118342Y181256
X118342Y191256
X118342Y201256
X118342Y211256
X118342Y221256
X118342Y231256
X118342Y126256
X118342Y116256
X118342Y106256
X118342Y96256
X118342Y86256
X118342Y76256
X118342Y66256
X118342Y56256
X88342Y56256
X88342Y66256
X88342Y76256
X88342Y86256
X88342Y96256
X88342Y106256
X88342Y116256
X88342Y126256
T03
X148342Y126256
X148342Y116256
X148342Y106256
X148342Y96256
X148342Y86256
X148342Y76256
X148342Y66256
X148342Y56256
X148342Y46256
X178342Y46256
X178342Y56256
X178342Y66256
X178342Y76256
X178342Y86256
X178342Y96256
X178342Y106256
X178342Y116256
X178342Y126256
X178342Y151256
X178342Y161256
X178342Y171256
X178342Y181256
X178342Y191256
X178342Y201256
X178342Y211256
X178342Y221256
X178342Y231256
X178342Y256256
X178342Y266256
X178342Y276256
X178342Y286256
X178342Y296256
X178342Y306256
X178342Y316256
X178342Y326256
X178342Y336256
X178342Y361256
X178342Y371256
X178342Y381256
X178342Y391256
X178342Y401256
X178342Y411256
X178342Y421256
X178342Y431256
X178342Y441256
X178342Y466256
X178342Y476256
X178342Y486256
X178342Y496256
X178342Y506256
X178342Y516256
X178342Y526256
X178342Y536256
X178342Y546256
X148342Y546256
X148342Y536256
X148342Y526256
X148342Y516256
X148342Y506256
X148342Y496256
X148342Y486256
X148342Y476256
X148342Y466256
X148342Y441256
X148342Y431256
X148342Y421256
X148342Y411256
X148342Y401256
X148342Y391256
X148342Y381256
X148342Y371256
X148342Y361256
X148342Y336256
X148342Y326256
X148342Y316256
X148342Y306256
X148342Y296256
X148342Y286256
X148342Y276256
X148342Y266256
X148342Y256256
X148342Y231256
X148342Y221256
X148342Y211256
X148342Y201256
X148342Y191256
X148342Y181256
X148342Y171256
X148342Y161256
X148342Y151256
X218342Y76256
X238342Y61256
X248342Y61256
X273342Y76256
X293342Y61256
X303342Y61256
X318342Y76256
X338342Y61256
X348342Y61256
X318342Y46256
X273342Y46256
X218342Y46256
X383342Y56256
X383342Y66256
X383342Y76256
X383342Y86256
X383342Y96256
X383342Y106256
X383342Y116256
X383342Y126256
X383342Y136256
X383342Y161256
X383342Y171256
X383342Y181256
X383342Y191256
X383342Y201256
X383342Y211256
X383342Y221256
X383342Y231256
X383342Y241256
X383342Y266256
X383342Y276256
X383342Y286256
X383342Y296256
X383342Y306256
X383342Y316256
X383342Y326256
X383342Y336256
X383342Y346256
X383342Y371256
X383342Y381256
X383342Y391256
X383342Y401256
X383342Y411256
X383342Y421256
X383342Y431256
X383342Y441256
X383342Y451256
X383342Y476256
X383342Y486256
X383342Y496256
X383342Y506256
X383342Y516256
X383342Y526256
X383342Y536256
X383342Y546256
X383342Y556256
X413342Y556256
X413342Y546256
X413342Y536256
X413342Y526256
X413342Y516256
X413342Y506256
X413342Y496256
X413342Y486256
X413342Y476256
X413342Y451256
X413342Y441256
X413342Y431256
X413342Y421256
X413342Y411256
X413342Y401256
X413342Y391256
X413342Y381256
X413342Y371256
X413342Y346256
X413342Y336256
X413342Y326256
X413342Y316256
X413342Y306256
X413342Y296256
X413342Y286256
X413342Y276256
X413342Y266256
X413342Y241256
X413342Y231256
X413342Y221256
X413342Y211256
X413342Y201256
X413342Y191256
X413342Y181256
X413342Y171256
X413342Y161256
X413342Y136256
X413342Y126256
X413342Y116256
X413342Y106256
X413342Y96256
X413342Y86256
X413342Y76256
X413342Y66256
X413342Y56256
T04
X518342Y11256
X528342Y11256
X538342Y11256
X78342Y556256
X68342Y556256
X58342Y556256
X48342Y561256
X38342Y561256
X38342Y551256
X48342Y551256
X518342Y571256
X528342Y571256
X528342Y581256
X518342Y581256
T05
X283342Y421256
X283342Y411256
X283342Y401256
X283342Y391256
X283342Y381256
X283342Y371256
X283342Y361256
X283342Y351256
X283342Y341256
X283342Y331256
X283342Y321256
X283342Y311256
X283342Y301256
X283342Y291256
X283342Y281256
X283342Y271256
X283342Y261256
X283342Y251256
X283342Y241256
X283342Y231256
X283342Y221256
X283342Y211256
X283342Y201256
X283342Y191256
X283342Y181256
X273342Y181256
X273342Y191256
X273342Y201256
X273342Y211256
X273342Y221256
X273342Y231256
X273342Y241256
X273342Y251256
X273342Y261256
X273342Y271256
X273342Y281256
X273342Y291256
X273342Y301256
X273342Y311256
X273342Y321256
X273342Y331256
X273342Y341256
X273342Y351256
X273342Y361256
X273342Y371256
X273342Y381256
X273342Y391256
X273342Y401256
X273342Y411256
X273342Y421256
T06
X198342Y461256
X165442Y577756
X363342Y461256
X393742Y577756
X363342Y141256
X198342Y141256
M30
