G75*
%MOIN*%
%OFA0B0*%
%FSLAX25Y25*%
%IPPOS*%
%LPD*%
%AMOC8*
5,1,8,0,0,1.08239X$1,22.5*
%
%ADD10R,0.06400X0.06400*%
%ADD11C,0.06400*%
%ADD12R,0.06300X0.06300*%
%ADD13C,0.06300*%
%ADD14R,0.06800X0.06800*%
%ADD15C,0.06800*%
%ADD16OC8,0.07137*%
%ADD17OC8,0.06400*%
%ADD18OC8,0.06800*%
%ADD19C,0.06800*%
%ADD20C,0.04965*%
D10*
X0391000Y0056000D03*
X0391000Y0161000D03*
X0391000Y0266000D03*
X0391000Y0371000D03*
X0391000Y0476000D03*
D11*
X0391000Y0486000D03*
X0391000Y0496000D03*
X0391000Y0506000D03*
X0391000Y0516000D03*
X0391000Y0526000D03*
X0391000Y0536000D03*
X0391000Y0546000D03*
X0391000Y0556000D03*
X0361000Y0556000D03*
X0361000Y0546000D03*
X0361000Y0536000D03*
X0361000Y0526000D03*
X0361000Y0516000D03*
X0361000Y0506000D03*
X0361000Y0496000D03*
X0361000Y0486000D03*
X0361000Y0476000D03*
X0361000Y0451000D03*
X0361000Y0441000D03*
X0361000Y0431000D03*
X0361000Y0421000D03*
X0361000Y0411000D03*
X0361000Y0401000D03*
X0361000Y0391000D03*
X0361000Y0381000D03*
X0361000Y0371000D03*
X0361000Y0346000D03*
X0361000Y0336000D03*
X0361000Y0326000D03*
X0361000Y0316000D03*
X0361000Y0306000D03*
X0361000Y0296000D03*
X0361000Y0286000D03*
X0361000Y0276000D03*
X0361000Y0266000D03*
X0361000Y0241000D03*
X0361000Y0231000D03*
X0361000Y0221000D03*
X0361000Y0211000D03*
X0361000Y0201000D03*
X0361000Y0191000D03*
X0361000Y0181000D03*
X0361000Y0171000D03*
X0361000Y0161000D03*
X0361000Y0136000D03*
X0361000Y0126000D03*
X0361000Y0116000D03*
X0361000Y0106000D03*
X0361000Y0096000D03*
X0361000Y0086000D03*
X0361000Y0076000D03*
X0361000Y0066000D03*
X0361000Y0056000D03*
X0391000Y0066000D03*
X0391000Y0076000D03*
X0391000Y0086000D03*
X0391000Y0096000D03*
X0391000Y0106000D03*
X0391000Y0116000D03*
X0391000Y0126000D03*
X0391000Y0136000D03*
X0391000Y0171000D03*
X0391000Y0181000D03*
X0391000Y0191000D03*
X0391000Y0201000D03*
X0391000Y0211000D03*
X0391000Y0221000D03*
X0391000Y0231000D03*
X0391000Y0241000D03*
X0391000Y0276000D03*
X0391000Y0286000D03*
X0391000Y0296000D03*
X0391000Y0306000D03*
X0391000Y0316000D03*
X0391000Y0326000D03*
X0391000Y0336000D03*
X0391000Y0346000D03*
X0391000Y0381000D03*
X0391000Y0391000D03*
X0391000Y0401000D03*
X0391000Y0411000D03*
X0391000Y0421000D03*
X0391000Y0431000D03*
X0391000Y0441000D03*
X0391000Y0451000D03*
D12*
X0416000Y0431000D03*
X0416000Y0536000D03*
X0416000Y0326000D03*
X0416000Y0221000D03*
X0416000Y0116000D03*
X0096000Y0161000D03*
X0096000Y0266000D03*
X0096000Y0371000D03*
X0096000Y0476000D03*
X0096000Y0056000D03*
D13*
X0096000Y0066000D03*
X0096000Y0076000D03*
X0096000Y0086000D03*
X0096000Y0096000D03*
X0096000Y0106000D03*
X0096000Y0116000D03*
X0096000Y0126000D03*
X0066000Y0126000D03*
X0066000Y0116000D03*
X0066000Y0106000D03*
X0066000Y0096000D03*
X0066000Y0086000D03*
X0066000Y0076000D03*
X0066000Y0066000D03*
X0066000Y0056000D03*
X0066000Y0161000D03*
X0066000Y0171000D03*
X0066000Y0181000D03*
X0066000Y0191000D03*
X0066000Y0201000D03*
X0066000Y0211000D03*
X0066000Y0221000D03*
X0066000Y0231000D03*
X0096000Y0231000D03*
X0096000Y0221000D03*
X0096000Y0211000D03*
X0096000Y0201000D03*
X0096000Y0191000D03*
X0096000Y0181000D03*
X0096000Y0171000D03*
X0066000Y0266000D03*
X0066000Y0276000D03*
X0066000Y0286000D03*
X0066000Y0296000D03*
X0066000Y0306000D03*
X0066000Y0316000D03*
X0066000Y0326000D03*
X0066000Y0336000D03*
X0096000Y0336000D03*
X0096000Y0326000D03*
X0096000Y0316000D03*
X0096000Y0306000D03*
X0096000Y0296000D03*
X0096000Y0286000D03*
X0096000Y0276000D03*
X0066000Y0371000D03*
X0066000Y0381000D03*
X0066000Y0391000D03*
X0066000Y0401000D03*
X0066000Y0411000D03*
X0066000Y0421000D03*
X0066000Y0431000D03*
X0066000Y0441000D03*
X0066000Y0476000D03*
X0066000Y0486000D03*
X0066000Y0496000D03*
X0066000Y0506000D03*
X0066000Y0516000D03*
X0066000Y0526000D03*
X0066000Y0536000D03*
X0066000Y0546000D03*
X0096000Y0546000D03*
X0096000Y0536000D03*
X0096000Y0526000D03*
X0096000Y0516000D03*
X0096000Y0506000D03*
X0096000Y0496000D03*
X0096000Y0486000D03*
X0096000Y0441000D03*
X0096000Y0431000D03*
X0096000Y0421000D03*
X0096000Y0411000D03*
X0096000Y0401000D03*
X0096000Y0391000D03*
X0096000Y0381000D03*
X0416000Y0381000D03*
X0416000Y0371000D03*
X0416000Y0361000D03*
X0416000Y0391000D03*
X0416000Y0401000D03*
X0416000Y0411000D03*
X0416000Y0421000D03*
X0446000Y0421000D03*
X0446000Y0411000D03*
X0446000Y0401000D03*
X0446000Y0391000D03*
X0446000Y0381000D03*
X0446000Y0371000D03*
X0446000Y0361000D03*
X0446000Y0326000D03*
X0446000Y0316000D03*
X0446000Y0306000D03*
X0446000Y0296000D03*
X0446000Y0286000D03*
X0446000Y0276000D03*
X0446000Y0266000D03*
X0446000Y0256000D03*
X0446000Y0221000D03*
X0446000Y0211000D03*
X0446000Y0201000D03*
X0446000Y0191000D03*
X0446000Y0181000D03*
X0446000Y0171000D03*
X0446000Y0161000D03*
X0446000Y0151000D03*
X0416000Y0151000D03*
X0416000Y0161000D03*
X0416000Y0171000D03*
X0416000Y0181000D03*
X0416000Y0191000D03*
X0416000Y0201000D03*
X0416000Y0211000D03*
X0416000Y0256000D03*
X0416000Y0266000D03*
X0416000Y0276000D03*
X0416000Y0286000D03*
X0416000Y0296000D03*
X0416000Y0306000D03*
X0416000Y0316000D03*
X0446000Y0431000D03*
X0446000Y0466000D03*
X0446000Y0476000D03*
X0446000Y0486000D03*
X0446000Y0496000D03*
X0446000Y0506000D03*
X0446000Y0516000D03*
X0446000Y0526000D03*
X0446000Y0536000D03*
X0416000Y0526000D03*
X0416000Y0516000D03*
X0416000Y0506000D03*
X0416000Y0496000D03*
X0416000Y0486000D03*
X0416000Y0476000D03*
X0416000Y0466000D03*
X0446000Y0116000D03*
X0446000Y0106000D03*
X0446000Y0096000D03*
X0446000Y0086000D03*
X0446000Y0076000D03*
X0446000Y0066000D03*
X0446000Y0056000D03*
X0446000Y0046000D03*
X0416000Y0046000D03*
X0416000Y0056000D03*
X0416000Y0066000D03*
X0416000Y0076000D03*
X0416000Y0086000D03*
X0416000Y0096000D03*
X0416000Y0106000D03*
D14*
X0126000Y0126000D03*
X0126000Y0231000D03*
X0126000Y0336000D03*
X0126000Y0441000D03*
X0126000Y0546000D03*
D15*
X0126000Y0536000D03*
X0126000Y0526000D03*
X0126000Y0516000D03*
X0126000Y0506000D03*
X0126000Y0496000D03*
X0126000Y0486000D03*
X0126000Y0476000D03*
X0126000Y0466000D03*
X0156000Y0466000D03*
X0156000Y0476000D03*
X0156000Y0486000D03*
X0156000Y0496000D03*
X0156000Y0506000D03*
X0156000Y0516000D03*
X0156000Y0526000D03*
X0156000Y0536000D03*
X0156000Y0546000D03*
X0156000Y0441000D03*
X0156000Y0431000D03*
X0156000Y0421000D03*
X0156000Y0411000D03*
X0156000Y0401000D03*
X0156000Y0391000D03*
X0156000Y0381000D03*
X0156000Y0371000D03*
X0156000Y0361000D03*
X0156000Y0336000D03*
X0156000Y0326000D03*
X0156000Y0316000D03*
X0156000Y0306000D03*
X0156000Y0296000D03*
X0156000Y0286000D03*
X0156000Y0276000D03*
X0156000Y0266000D03*
X0156000Y0256000D03*
X0156000Y0231000D03*
X0156000Y0221000D03*
X0156000Y0211000D03*
X0156000Y0201000D03*
X0156000Y0191000D03*
X0156000Y0181000D03*
X0156000Y0171000D03*
X0156000Y0161000D03*
X0156000Y0151000D03*
X0156000Y0126000D03*
X0156000Y0116000D03*
X0156000Y0106000D03*
X0156000Y0096000D03*
X0156000Y0086000D03*
X0156000Y0076000D03*
X0156000Y0066000D03*
X0156000Y0056000D03*
X0156000Y0046000D03*
X0126000Y0046000D03*
X0126000Y0056000D03*
X0126000Y0066000D03*
X0126000Y0076000D03*
X0126000Y0086000D03*
X0126000Y0096000D03*
X0126000Y0106000D03*
X0126000Y0116000D03*
X0126000Y0151000D03*
X0126000Y0161000D03*
X0126000Y0171000D03*
X0126000Y0181000D03*
X0126000Y0191000D03*
X0126000Y0201000D03*
X0126000Y0211000D03*
X0126000Y0221000D03*
X0126000Y0256000D03*
X0126000Y0266000D03*
X0126000Y0276000D03*
X0126000Y0286000D03*
X0126000Y0296000D03*
X0126000Y0306000D03*
X0126000Y0316000D03*
X0126000Y0326000D03*
X0126000Y0361000D03*
X0126000Y0371000D03*
X0126000Y0381000D03*
X0126000Y0391000D03*
X0126000Y0401000D03*
X0126000Y0411000D03*
X0126000Y0421000D03*
X0126000Y0431000D03*
D16*
X0251000Y0421000D03*
X0251000Y0411000D03*
X0251000Y0401000D03*
X0251000Y0391000D03*
X0251000Y0381000D03*
X0251000Y0371000D03*
X0251000Y0361000D03*
X0251000Y0351000D03*
X0251000Y0341000D03*
X0251000Y0331000D03*
X0251000Y0321000D03*
X0251000Y0311000D03*
X0251000Y0301000D03*
X0251000Y0291000D03*
X0251000Y0281000D03*
X0251000Y0271000D03*
X0251000Y0261000D03*
X0251000Y0251000D03*
X0251000Y0241000D03*
X0251000Y0231000D03*
X0251000Y0221000D03*
X0251000Y0211000D03*
X0251000Y0201000D03*
X0251000Y0191000D03*
X0251000Y0181000D03*
X0261000Y0181000D03*
X0261000Y0191000D03*
X0261000Y0201000D03*
X0261000Y0211000D03*
X0261000Y0221000D03*
X0261000Y0231000D03*
X0261000Y0241000D03*
X0261000Y0251000D03*
X0261000Y0261000D03*
X0261000Y0271000D03*
X0261000Y0281000D03*
X0261000Y0291000D03*
X0261000Y0301000D03*
X0261000Y0311000D03*
X0261000Y0321000D03*
X0261000Y0331000D03*
X0261000Y0341000D03*
X0261000Y0351000D03*
X0261000Y0361000D03*
X0261000Y0371000D03*
X0261000Y0381000D03*
X0261000Y0391000D03*
X0261000Y0401000D03*
X0261000Y0411000D03*
X0261000Y0421000D03*
D17*
X0251000Y0076000D03*
X0271000Y0061000D03*
X0281000Y0061000D03*
X0296000Y0046000D03*
X0316000Y0061000D03*
X0326000Y0061000D03*
X0296000Y0076000D03*
X0251000Y0046000D03*
X0226000Y0061000D03*
X0216000Y0061000D03*
X0196000Y0046000D03*
X0196000Y0076000D03*
D18*
X0026000Y0551000D03*
X0016000Y0551000D03*
X0016000Y0561000D03*
X0026000Y0561000D03*
X0496000Y0571000D03*
X0506000Y0571000D03*
X0506000Y0581000D03*
X0496000Y0581000D03*
D19*
X0056000Y0559000D02*
X0056000Y0553000D01*
X0046000Y0553000D02*
X0046000Y0559000D01*
X0036000Y0559000D02*
X0036000Y0553000D01*
D20*
X0016000Y0046000D03*
X0026000Y0056000D03*
X0031000Y0086000D03*
X0026000Y0116000D03*
X0031000Y0136000D03*
X0016000Y0151000D03*
X0026000Y0161000D03*
X0031000Y0191000D03*
X0026000Y0221000D03*
X0031000Y0241000D03*
X0016000Y0256000D03*
X0026000Y0266000D03*
X0031000Y0296000D03*
X0026000Y0326000D03*
X0031000Y0346000D03*
X0016000Y0361000D03*
X0026000Y0371000D03*
X0031000Y0401000D03*
X0026000Y0431000D03*
X0031000Y0451000D03*
X0016000Y0466000D03*
X0026000Y0476000D03*
X0031000Y0506000D03*
X0026000Y0526000D03*
X0031000Y0531000D03*
X0081000Y0556000D03*
X0256000Y0546000D03*
X0256000Y0536000D03*
X0256000Y0526000D03*
X0256000Y0516000D03*
X0256000Y0506000D03*
X0256000Y0496000D03*
X0256000Y0486000D03*
X0256000Y0476000D03*
X0256000Y0466000D03*
X0256000Y0456000D03*
X0256000Y0446000D03*
X0456000Y0571000D03*
X0461000Y0566000D03*
X0466000Y0561000D03*
X0471000Y0571000D03*
X0476000Y0561000D03*
X0481000Y0566000D03*
X0506000Y0551000D03*
X0511000Y0556000D03*
X0496000Y0536000D03*
X0491000Y0506000D03*
X0496000Y0476000D03*
X0491000Y0456000D03*
X0506000Y0446000D03*
X0511000Y0451000D03*
X0496000Y0431000D03*
X0491000Y0401000D03*
X0496000Y0371000D03*
X0491000Y0351000D03*
X0506000Y0341000D03*
X0511000Y0346000D03*
X0496000Y0326000D03*
X0491000Y0296000D03*
X0496000Y0266000D03*
X0491000Y0246000D03*
X0506000Y0236000D03*
X0511000Y0241000D03*
X0496000Y0221000D03*
X0491000Y0191000D03*
X0496000Y0161000D03*
X0491000Y0141000D03*
X0506000Y0131000D03*
X0511000Y0136000D03*
X0496000Y0116000D03*
X0491000Y0086000D03*
X0496000Y0056000D03*
X0481000Y0036000D03*
X0326000Y0011000D03*
X0286000Y0006000D03*
X0281000Y0021000D03*
X0241000Y0016000D03*
X0226000Y0021000D03*
X0256000Y0086000D03*
X0256000Y0096000D03*
X0256000Y0106000D03*
X0256000Y0116000D03*
X0256000Y0126000D03*
X0256000Y0136000D03*
X0256000Y0146000D03*
X0256000Y0156000D03*
X0256000Y0166000D03*
M02*
