%
M48
M72
T01C0.02165
T02C0.03100
T03C0.03200
T04C0.03937
T05C0.11024
%
T01
X16000Y46000
X26000Y56000
X31000Y86000
X26000Y116000
X31000Y136000
X16000Y151000
X26000Y161000
X31000Y191000
X26000Y221000
X31000Y241000
X16000Y256000
X26000Y266000
X31000Y296000
X26000Y326000
X31000Y346000
X16000Y361000
X26000Y371000
X31000Y401000
X26000Y431000
X31000Y451000
X16000Y466000
X26000Y476000
X31000Y506000
X26000Y526000
X31000Y531000
X81000Y551000
X256000Y546000
X256000Y536000
X256000Y526000
X256000Y516000
X256000Y506000
X256000Y496000
X256000Y486000
X256000Y476000
X256000Y441000
X176000Y276000
X176000Y266000
X176000Y231000
X176000Y221000
X176000Y211000
X176000Y201000
X176000Y191000
X176000Y181000
X176000Y171000
X176000Y161000
X176000Y126000
X176000Y116000
X176000Y106000
X176000Y96000
X176000Y86000
X226000Y21000
X241000Y16000
X281000Y21000
X286000Y6000
X326000Y11000
X481000Y36000
X496000Y56000
X491000Y86000
X496000Y116000
X506000Y131000
X511000Y136000
X491000Y141000
X496000Y161000
X491000Y191000
X496000Y221000
X506000Y236000
X511000Y241000
X491000Y246000
X496000Y266000
X491000Y296000
X496000Y326000
X506000Y341000
X511000Y346000
X491000Y351000
X496000Y371000
X491000Y401000
X496000Y431000
X506000Y446000
X511000Y451000
X491000Y456000
X496000Y476000
X491000Y506000
X496000Y536000
X506000Y551000
X511000Y556000
X481000Y566000
X476000Y561000
X471000Y571000
X466000Y561000
X461000Y566000
X456000Y571000
T02
X446000Y536000
X446000Y526000
X446000Y516000
X446000Y506000
X446000Y496000
X446000Y486000
X446000Y476000
X446000Y466000
X416000Y466000
X416000Y476000
X416000Y486000
X416000Y496000
X416000Y506000
X416000Y516000
X416000Y526000
X416000Y536000
X416000Y431000
X416000Y421000
X416000Y411000
X416000Y401000
X416000Y391000
X416000Y381000
X416000Y371000
X416000Y361000
X446000Y361000
X446000Y371000
X446000Y381000
X446000Y391000
X446000Y401000
X446000Y411000
X446000Y421000
X446000Y431000
X446000Y326000
X446000Y316000
X446000Y306000
X446000Y296000
X446000Y286000
X446000Y276000
X446000Y266000
X446000Y256000
X446000Y221000
X446000Y211000
X446000Y201000
X446000Y191000
X446000Y181000
X446000Y171000
X446000Y161000
X446000Y151000
X416000Y151000
X416000Y161000
X416000Y171000
X416000Y181000
X416000Y191000
X416000Y201000
X416000Y211000
X416000Y221000
X416000Y256000
X416000Y266000
X416000Y276000
X416000Y286000
X416000Y296000
X416000Y306000
X416000Y316000
X416000Y326000
X416000Y116000
X416000Y106000
X416000Y96000
X416000Y86000
X416000Y76000
X416000Y66000
X416000Y56000
X416000Y46000
X446000Y46000
X446000Y56000
X446000Y66000
X446000Y76000
X446000Y86000
X446000Y96000
X446000Y106000
X446000Y116000
X96000Y116000
X96000Y106000
X96000Y96000
X96000Y86000
X96000Y76000
X96000Y66000
X96000Y56000
X66000Y56000
X66000Y66000
X66000Y76000
X66000Y86000
X66000Y96000
X66000Y106000
X66000Y116000
X66000Y126000
X66000Y161000
X66000Y171000
X66000Y181000
X66000Y191000
X66000Y201000
X66000Y211000
X66000Y221000
X66000Y231000
X96000Y231000
X96000Y221000
X96000Y211000
X96000Y201000
X96000Y191000
X96000Y181000
X96000Y171000
X96000Y161000
X96000Y126000
X96000Y266000
X96000Y276000
X96000Y286000
X96000Y296000
X96000Y306000
X96000Y316000
X96000Y326000
X96000Y336000
X66000Y336000
X66000Y326000
X66000Y316000
X66000Y306000
X66000Y296000
X66000Y286000
X66000Y276000
X66000Y266000
X66000Y371000
X66000Y381000
X66000Y391000
X66000Y401000
X66000Y411000
X66000Y421000
X66000Y431000
X66000Y441000
X96000Y441000
X96000Y431000
X96000Y421000
X96000Y411000
X96000Y401000
X96000Y391000
X96000Y381000
X96000Y371000
X96000Y476000
X96000Y486000
X96000Y496000
X96000Y506000
X96000Y516000
X96000Y526000
X96000Y536000
X96000Y546000
X66000Y546000
X66000Y536000
X66000Y526000
X66000Y516000
X66000Y506000
X66000Y496000
X66000Y486000
X66000Y476000
T03
X126000Y476000
X126000Y466000
X126000Y486000
X126000Y496000
X126000Y506000
X126000Y516000
X126000Y526000
X126000Y536000
X126000Y546000
X156000Y546000
X156000Y536000
X156000Y526000
X156000Y516000
X156000Y506000
X156000Y496000
X156000Y486000
X156000Y476000
X156000Y466000
X156000Y441000
X156000Y431000
X156000Y421000
X156000Y411000
X156000Y401000
X156000Y391000
X156000Y381000
X156000Y371000
X156000Y361000
X156000Y336000
X156000Y326000
X156000Y316000
X156000Y306000
X156000Y296000
X156000Y286000
X156000Y276000
X156000Y266000
X156000Y256000
X156000Y231000
X156000Y221000
X156000Y211000
X156000Y201000
X156000Y191000
X156000Y181000
X156000Y171000
X156000Y161000
X156000Y151000
X156000Y126000
X156000Y116000
X156000Y106000
X156000Y96000
X156000Y86000
X156000Y76000
X156000Y66000
X156000Y56000
X156000Y46000
X126000Y46000
X126000Y56000
X126000Y66000
X126000Y76000
X126000Y86000
X126000Y96000
X126000Y106000
X126000Y116000
X126000Y126000
X126000Y151000
X126000Y161000
X126000Y171000
X126000Y181000
X126000Y191000
X126000Y201000
X126000Y211000
X126000Y221000
X126000Y231000
X126000Y256000
X126000Y266000
X126000Y276000
X126000Y286000
X126000Y296000
X126000Y306000
X126000Y316000
X126000Y326000
X126000Y336000
X126000Y361000
X126000Y371000
X126000Y381000
X126000Y391000
X126000Y401000
X126000Y411000
X126000Y421000
X126000Y431000
X126000Y441000
X51000Y546000
X41000Y546000
X31000Y546000
X26000Y556000
X16000Y546000
X11000Y556000
X46000Y556000
X361000Y556000
X361000Y546000
X361000Y536000
X361000Y526000
X361000Y516000
X361000Y506000
X361000Y496000
X361000Y486000
X361000Y476000
X361000Y451000
X361000Y441000
X361000Y431000
X361000Y421000
X361000Y411000
X361000Y401000
X361000Y391000
X361000Y381000
X361000Y371000
X361000Y346000
X361000Y336000
X361000Y326000
X361000Y316000
X361000Y306000
X361000Y296000
X361000Y286000
X361000Y276000
X361000Y266000
X361000Y241000
X361000Y231000
X361000Y221000
X361000Y211000
X361000Y201000
X361000Y191000
X361000Y181000
X361000Y171000
X361000Y161000
X361000Y136000
X361000Y126000
X361000Y116000
X361000Y106000
X361000Y96000
X361000Y86000
X361000Y76000
X361000Y66000
X361000Y56000
X391000Y56000
X391000Y66000
X391000Y76000
X391000Y86000
X391000Y96000
X391000Y106000
X391000Y116000
X391000Y126000
X391000Y136000
X391000Y161000
X391000Y171000
X391000Y181000
X391000Y191000
X391000Y201000
X391000Y211000
X391000Y221000
X391000Y231000
X391000Y241000
X391000Y266000
X391000Y276000
X391000Y286000
X391000Y296000
X391000Y306000
X391000Y316000
X391000Y326000
X391000Y336000
X391000Y346000
X391000Y371000
X391000Y381000
X391000Y391000
X391000Y401000
X391000Y411000
X391000Y421000
X391000Y431000
X391000Y441000
X391000Y451000
X391000Y476000
X391000Y486000
X391000Y496000
X391000Y506000
X391000Y516000
X391000Y526000
X391000Y536000
X391000Y546000
X391000Y556000
X296000Y76000
X281000Y61000
X271000Y61000
X251000Y46000
X226000Y61000
X216000Y61000
X196000Y46000
X196000Y76000
X251000Y76000
X296000Y46000
X316000Y61000
X326000Y61000
T04
X261000Y181000
X261000Y191000
X261000Y201000
X261000Y211000
X261000Y221000
X261000Y231000
X261000Y241000
X261000Y251000
X261000Y261000
X261000Y271000
X261000Y281000
X261000Y291000
X261000Y301000
X261000Y311000
X261000Y321000
X261000Y331000
X261000Y341000
X261000Y351000
X261000Y361000
X261000Y371000
X261000Y381000
X261000Y391000
X261000Y401000
X261000Y411000
X261000Y421000
X251000Y421000
X251000Y411000
X251000Y401000
X251000Y391000
X251000Y381000
X251000Y371000
X251000Y361000
X251000Y351000
X251000Y341000
X251000Y331000
X251000Y321000
X251000Y311000
X251000Y301000
X251000Y291000
X251000Y281000
X251000Y271000
X251000Y261000
X251000Y251000
X251000Y241000
X251000Y231000
X251000Y221000
X251000Y211000
X251000Y201000
X251000Y191000
X251000Y181000
T05
X196000Y146000
X316000Y146000
X311000Y461000
X196000Y461000
M30
