G75*
%MOIN*%
%OFA0B0*%
%FSLAX25Y25*%
%IPPOS*%
%LPD*%
%AMOC8*
5,1,8,0,0,1.08239X$1,22.5*
%
%ADD10R,0.05600X0.05600*%
%ADD11C,0.05600*%
%ADD12R,0.05500X0.05500*%
%ADD13C,0.05500*%
%ADD14R,0.06000X0.06000*%
%ADD15C,0.06000*%
%ADD16OC8,0.06337*%
%ADD17OC8,0.06300*%
%ADD18OC8,0.05600*%
%ADD19C,0.01000*%
%ADD20C,0.04165*%
%ADD21C,0.02000*%
D10*
X0391000Y0056000D03*
X0391000Y0161000D03*
X0391000Y0266000D03*
X0391000Y0371000D03*
X0391000Y0476000D03*
D11*
X0391000Y0486000D03*
X0391000Y0496000D03*
X0391000Y0506000D03*
X0391000Y0516000D03*
X0391000Y0526000D03*
X0391000Y0536000D03*
X0391000Y0546000D03*
X0391000Y0556000D03*
X0361000Y0556000D03*
X0361000Y0546000D03*
X0361000Y0536000D03*
X0361000Y0526000D03*
X0361000Y0516000D03*
X0361000Y0506000D03*
X0361000Y0496000D03*
X0361000Y0486000D03*
X0361000Y0476000D03*
X0361000Y0451000D03*
X0361000Y0441000D03*
X0361000Y0431000D03*
X0361000Y0421000D03*
X0361000Y0411000D03*
X0361000Y0401000D03*
X0361000Y0391000D03*
X0361000Y0381000D03*
X0361000Y0371000D03*
X0361000Y0346000D03*
X0361000Y0336000D03*
X0361000Y0326000D03*
X0361000Y0316000D03*
X0361000Y0306000D03*
X0361000Y0296000D03*
X0361000Y0286000D03*
X0361000Y0276000D03*
X0361000Y0266000D03*
X0361000Y0241000D03*
X0361000Y0231000D03*
X0361000Y0221000D03*
X0361000Y0211000D03*
X0361000Y0201000D03*
X0361000Y0191000D03*
X0361000Y0181000D03*
X0361000Y0171000D03*
X0361000Y0161000D03*
X0361000Y0136000D03*
X0361000Y0126000D03*
X0361000Y0116000D03*
X0361000Y0106000D03*
X0361000Y0096000D03*
X0361000Y0086000D03*
X0361000Y0076000D03*
X0361000Y0066000D03*
X0361000Y0056000D03*
X0391000Y0066000D03*
X0391000Y0076000D03*
X0391000Y0086000D03*
X0391000Y0096000D03*
X0391000Y0106000D03*
X0391000Y0116000D03*
X0391000Y0126000D03*
X0391000Y0136000D03*
X0391000Y0171000D03*
X0391000Y0181000D03*
X0391000Y0191000D03*
X0391000Y0201000D03*
X0391000Y0211000D03*
X0391000Y0221000D03*
X0391000Y0231000D03*
X0391000Y0241000D03*
X0391000Y0276000D03*
X0391000Y0286000D03*
X0391000Y0296000D03*
X0391000Y0306000D03*
X0391000Y0316000D03*
X0391000Y0326000D03*
X0391000Y0336000D03*
X0391000Y0346000D03*
X0391000Y0381000D03*
X0391000Y0391000D03*
X0391000Y0401000D03*
X0391000Y0411000D03*
X0391000Y0421000D03*
X0391000Y0431000D03*
X0391000Y0441000D03*
X0391000Y0451000D03*
D12*
X0416000Y0431000D03*
X0416000Y0536000D03*
X0416000Y0326000D03*
X0416000Y0221000D03*
X0416000Y0116000D03*
X0096000Y0161000D03*
X0096000Y0056000D03*
X0096000Y0266000D03*
X0096000Y0371000D03*
X0096000Y0476000D03*
D13*
X0096000Y0486000D03*
X0096000Y0496000D03*
X0096000Y0506000D03*
X0096000Y0516000D03*
X0096000Y0526000D03*
X0096000Y0536000D03*
X0096000Y0546000D03*
X0066000Y0546000D03*
X0066000Y0536000D03*
X0066000Y0526000D03*
X0066000Y0516000D03*
X0066000Y0506000D03*
X0066000Y0496000D03*
X0066000Y0486000D03*
X0066000Y0476000D03*
X0066000Y0441000D03*
X0066000Y0431000D03*
X0066000Y0421000D03*
X0066000Y0411000D03*
X0066000Y0401000D03*
X0066000Y0391000D03*
X0066000Y0381000D03*
X0066000Y0371000D03*
X0096000Y0381000D03*
X0096000Y0391000D03*
X0096000Y0401000D03*
X0096000Y0411000D03*
X0096000Y0421000D03*
X0096000Y0431000D03*
X0096000Y0441000D03*
X0096000Y0336000D03*
X0096000Y0326000D03*
X0096000Y0316000D03*
X0096000Y0306000D03*
X0096000Y0296000D03*
X0096000Y0286000D03*
X0096000Y0276000D03*
X0066000Y0276000D03*
X0066000Y0286000D03*
X0066000Y0296000D03*
X0066000Y0306000D03*
X0066000Y0316000D03*
X0066000Y0326000D03*
X0066000Y0336000D03*
X0066000Y0266000D03*
X0066000Y0231000D03*
X0066000Y0221000D03*
X0066000Y0211000D03*
X0066000Y0201000D03*
X0066000Y0191000D03*
X0066000Y0181000D03*
X0066000Y0171000D03*
X0066000Y0161000D03*
X0066000Y0126000D03*
X0066000Y0116000D03*
X0066000Y0106000D03*
X0066000Y0096000D03*
X0066000Y0086000D03*
X0066000Y0076000D03*
X0066000Y0066000D03*
X0066000Y0056000D03*
X0096000Y0066000D03*
X0096000Y0076000D03*
X0096000Y0086000D03*
X0096000Y0096000D03*
X0096000Y0106000D03*
X0096000Y0116000D03*
X0096000Y0126000D03*
X0096000Y0171000D03*
X0096000Y0181000D03*
X0096000Y0191000D03*
X0096000Y0201000D03*
X0096000Y0211000D03*
X0096000Y0221000D03*
X0096000Y0231000D03*
X0416000Y0211000D03*
X0416000Y0201000D03*
X0416000Y0191000D03*
X0416000Y0181000D03*
X0416000Y0171000D03*
X0416000Y0161000D03*
X0416000Y0151000D03*
X0446000Y0151000D03*
X0446000Y0161000D03*
X0446000Y0171000D03*
X0446000Y0181000D03*
X0446000Y0191000D03*
X0446000Y0201000D03*
X0446000Y0211000D03*
X0446000Y0221000D03*
X0446000Y0256000D03*
X0446000Y0266000D03*
X0446000Y0276000D03*
X0446000Y0286000D03*
X0446000Y0296000D03*
X0446000Y0306000D03*
X0446000Y0316000D03*
X0446000Y0326000D03*
X0416000Y0316000D03*
X0416000Y0306000D03*
X0416000Y0296000D03*
X0416000Y0286000D03*
X0416000Y0276000D03*
X0416000Y0266000D03*
X0416000Y0256000D03*
X0416000Y0361000D03*
X0416000Y0371000D03*
X0416000Y0381000D03*
X0416000Y0391000D03*
X0416000Y0401000D03*
X0416000Y0411000D03*
X0416000Y0421000D03*
X0446000Y0421000D03*
X0446000Y0411000D03*
X0446000Y0401000D03*
X0446000Y0391000D03*
X0446000Y0381000D03*
X0446000Y0371000D03*
X0446000Y0361000D03*
X0446000Y0431000D03*
X0446000Y0466000D03*
X0446000Y0476000D03*
X0446000Y0486000D03*
X0446000Y0496000D03*
X0446000Y0506000D03*
X0446000Y0516000D03*
X0446000Y0526000D03*
X0446000Y0536000D03*
X0416000Y0526000D03*
X0416000Y0516000D03*
X0416000Y0506000D03*
X0416000Y0496000D03*
X0416000Y0486000D03*
X0416000Y0476000D03*
X0416000Y0466000D03*
X0446000Y0116000D03*
X0446000Y0106000D03*
X0446000Y0096000D03*
X0446000Y0086000D03*
X0446000Y0076000D03*
X0446000Y0066000D03*
X0446000Y0056000D03*
X0446000Y0046000D03*
X0416000Y0046000D03*
X0416000Y0056000D03*
X0416000Y0066000D03*
X0416000Y0076000D03*
X0416000Y0086000D03*
X0416000Y0096000D03*
X0416000Y0106000D03*
D14*
X0126000Y0126000D03*
X0126000Y0231000D03*
X0126000Y0336000D03*
X0126000Y0441000D03*
X0126000Y0546000D03*
D15*
X0126000Y0536000D03*
X0126000Y0526000D03*
X0126000Y0516000D03*
X0126000Y0506000D03*
X0126000Y0496000D03*
X0126000Y0486000D03*
X0126000Y0476000D03*
X0126000Y0466000D03*
X0156000Y0466000D03*
X0156000Y0476000D03*
X0156000Y0486000D03*
X0156000Y0496000D03*
X0156000Y0506000D03*
X0156000Y0516000D03*
X0156000Y0526000D03*
X0156000Y0536000D03*
X0156000Y0546000D03*
X0156000Y0441000D03*
X0156000Y0431000D03*
X0156000Y0421000D03*
X0156000Y0411000D03*
X0156000Y0401000D03*
X0156000Y0391000D03*
X0156000Y0381000D03*
X0156000Y0371000D03*
X0156000Y0361000D03*
X0156000Y0336000D03*
X0156000Y0326000D03*
X0156000Y0316000D03*
X0156000Y0306000D03*
X0156000Y0296000D03*
X0156000Y0286000D03*
X0156000Y0276000D03*
X0156000Y0266000D03*
X0156000Y0256000D03*
X0156000Y0231000D03*
X0156000Y0221000D03*
X0156000Y0211000D03*
X0156000Y0201000D03*
X0156000Y0191000D03*
X0156000Y0181000D03*
X0156000Y0171000D03*
X0156000Y0161000D03*
X0156000Y0151000D03*
X0156000Y0126000D03*
X0156000Y0116000D03*
X0156000Y0106000D03*
X0156000Y0096000D03*
X0156000Y0086000D03*
X0156000Y0076000D03*
X0156000Y0066000D03*
X0156000Y0056000D03*
X0156000Y0046000D03*
X0126000Y0046000D03*
X0126000Y0056000D03*
X0126000Y0066000D03*
X0126000Y0076000D03*
X0126000Y0086000D03*
X0126000Y0096000D03*
X0126000Y0106000D03*
X0126000Y0116000D03*
X0126000Y0151000D03*
X0126000Y0161000D03*
X0126000Y0171000D03*
X0126000Y0181000D03*
X0126000Y0191000D03*
X0126000Y0201000D03*
X0126000Y0211000D03*
X0126000Y0221000D03*
X0126000Y0256000D03*
X0126000Y0266000D03*
X0126000Y0276000D03*
X0126000Y0286000D03*
X0126000Y0296000D03*
X0126000Y0306000D03*
X0126000Y0316000D03*
X0126000Y0326000D03*
X0126000Y0361000D03*
X0126000Y0371000D03*
X0126000Y0381000D03*
X0126000Y0391000D03*
X0126000Y0401000D03*
X0126000Y0411000D03*
X0126000Y0421000D03*
X0126000Y0431000D03*
D16*
X0251000Y0421000D03*
X0251000Y0411000D03*
X0251000Y0401000D03*
X0251000Y0391000D03*
X0251000Y0381000D03*
X0251000Y0371000D03*
X0251000Y0361000D03*
X0251000Y0351000D03*
X0251000Y0341000D03*
X0251000Y0331000D03*
X0251000Y0321000D03*
X0251000Y0311000D03*
X0251000Y0301000D03*
X0251000Y0291000D03*
X0251000Y0281000D03*
X0251000Y0271000D03*
X0251000Y0261000D03*
X0251000Y0251000D03*
X0251000Y0241000D03*
X0251000Y0231000D03*
X0251000Y0221000D03*
X0251000Y0211000D03*
X0251000Y0201000D03*
X0251000Y0191000D03*
X0251000Y0181000D03*
X0261000Y0181000D03*
X0261000Y0191000D03*
X0261000Y0201000D03*
X0261000Y0211000D03*
X0261000Y0221000D03*
X0261000Y0231000D03*
X0261000Y0241000D03*
X0261000Y0251000D03*
X0261000Y0261000D03*
X0261000Y0271000D03*
X0261000Y0281000D03*
X0261000Y0291000D03*
X0261000Y0301000D03*
X0261000Y0311000D03*
X0261000Y0321000D03*
X0261000Y0331000D03*
X0261000Y0341000D03*
X0261000Y0351000D03*
X0261000Y0361000D03*
X0261000Y0371000D03*
X0261000Y0381000D03*
X0261000Y0391000D03*
X0261000Y0401000D03*
X0261000Y0411000D03*
X0261000Y0421000D03*
D17*
X0051000Y0546000D03*
X0041000Y0546000D03*
X0031000Y0546000D03*
X0026000Y0556000D03*
X0016000Y0546000D03*
X0011000Y0556000D03*
X0046000Y0556000D03*
D18*
X0196000Y0076000D03*
X0216000Y0061000D03*
X0226000Y0061000D03*
X0251000Y0046000D03*
X0271000Y0061000D03*
X0281000Y0061000D03*
X0296000Y0046000D03*
X0316000Y0061000D03*
X0326000Y0061000D03*
X0296000Y0076000D03*
X0251000Y0076000D03*
X0196000Y0046000D03*
D19*
X0181000Y0036000D02*
X0016000Y0036000D01*
X0006000Y0046000D01*
X0006000Y0571000D01*
X0011000Y0576000D01*
X0051000Y0576000D01*
X0056000Y0571000D01*
X0056000Y0556000D01*
X0051000Y0551000D01*
X0051000Y0546000D01*
X0046000Y0541000D02*
X0036000Y0531000D01*
X0031000Y0531000D01*
X0026000Y0526000D02*
X0041000Y0526000D01*
X0051000Y0536000D01*
X0066000Y0536000D01*
X0086000Y0541000D02*
X0046000Y0541000D01*
X0031000Y0506000D02*
X0066000Y0506000D01*
X0066000Y0476000D02*
X0026000Y0476000D01*
X0016000Y0466000D02*
X0126000Y0466000D01*
X0096000Y0446000D02*
X0096000Y0441000D01*
X0096000Y0446000D02*
X0091000Y0451000D01*
X0031000Y0451000D01*
X0026000Y0431000D02*
X0066000Y0431000D01*
X0066000Y0401000D02*
X0031000Y0401000D01*
X0026000Y0371000D02*
X0066000Y0371000D01*
X0091000Y0346000D02*
X0031000Y0346000D01*
X0016000Y0361000D02*
X0126000Y0361000D01*
X0156000Y0336000D02*
X0206000Y0336000D01*
X0226000Y0356000D01*
X0256000Y0356000D01*
X0261000Y0361000D01*
X0251000Y0351000D02*
X0256000Y0346000D01*
X0321000Y0346000D01*
X0346000Y0371000D01*
X0361000Y0371000D01*
X0361000Y0381000D02*
X0346000Y0381000D01*
X0341000Y0376000D01*
X0256000Y0376000D01*
X0251000Y0381000D01*
X0256000Y0386000D02*
X0251000Y0391000D01*
X0256000Y0386000D02*
X0331000Y0386000D01*
X0346000Y0401000D01*
X0361000Y0401000D01*
X0361000Y0411000D02*
X0291000Y0411000D01*
X0286000Y0406000D01*
X0256000Y0406000D01*
X0251000Y0401000D01*
X0256000Y0396000D02*
X0261000Y0401000D01*
X0256000Y0396000D02*
X0211000Y0396000D01*
X0206000Y0391000D01*
X0156000Y0391000D01*
X0156000Y0326000D02*
X0206000Y0326000D01*
X0216000Y0336000D01*
X0256000Y0336000D01*
X0261000Y0341000D01*
X0261000Y0321000D02*
X0256000Y0316000D01*
X0156000Y0316000D01*
X0156000Y0306000D02*
X0256000Y0306000D01*
X0261000Y0301000D01*
X0256000Y0286000D02*
X0261000Y0281000D01*
X0256000Y0286000D02*
X0231000Y0286000D01*
X0221000Y0296000D01*
X0156000Y0296000D01*
X0156000Y0286000D02*
X0216000Y0286000D01*
X0236000Y0266000D01*
X0256000Y0266000D01*
X0261000Y0261000D01*
X0246000Y0246000D02*
X0216000Y0276000D01*
X0176000Y0276000D01*
X0176000Y0266000D02*
X0216000Y0266000D01*
X0246000Y0236000D01*
X0316000Y0236000D01*
X0346000Y0266000D01*
X0361000Y0266000D01*
X0361000Y0276000D02*
X0346000Y0276000D01*
X0316000Y0246000D01*
X0246000Y0246000D01*
X0236000Y0231000D02*
X0176000Y0231000D01*
X0176000Y0221000D02*
X0236000Y0221000D01*
X0241000Y0216000D01*
X0341000Y0216000D01*
X0346000Y0221000D01*
X0361000Y0221000D01*
X0361000Y0231000D02*
X0346000Y0231000D01*
X0341000Y0226000D01*
X0241000Y0226000D01*
X0236000Y0231000D01*
X0236000Y0211000D02*
X0176000Y0211000D01*
X0176000Y0201000D02*
X0236000Y0201000D01*
X0241000Y0196000D01*
X0341000Y0196000D01*
X0346000Y0201000D01*
X0361000Y0201000D01*
X0361000Y0191000D02*
X0346000Y0191000D01*
X0341000Y0186000D01*
X0241000Y0186000D01*
X0236000Y0191000D01*
X0176000Y0191000D01*
X0176000Y0181000D02*
X0236000Y0181000D01*
X0241000Y0176000D01*
X0341000Y0176000D01*
X0346000Y0181000D01*
X0361000Y0181000D01*
X0361000Y0171000D02*
X0176000Y0171000D01*
X0176000Y0161000D02*
X0361000Y0161000D01*
X0361000Y0136000D02*
X0371000Y0136000D01*
X0376000Y0131000D01*
X0506000Y0131000D01*
X0491000Y0141000D02*
X0421000Y0141000D01*
X0416000Y0146000D01*
X0416000Y0151000D01*
X0446000Y0161000D02*
X0496000Y0161000D01*
X0491000Y0191000D02*
X0446000Y0191000D01*
X0446000Y0221000D02*
X0496000Y0221000D01*
X0506000Y0236000D02*
X0376000Y0236000D01*
X0371000Y0241000D01*
X0361000Y0241000D01*
X0361000Y0211000D02*
X0346000Y0211000D01*
X0341000Y0206000D01*
X0241000Y0206000D01*
X0236000Y0211000D01*
X0176000Y0126000D02*
X0361000Y0126000D01*
X0361000Y0116000D02*
X0176000Y0116000D01*
X0176000Y0106000D02*
X0361000Y0106000D01*
X0361000Y0096000D02*
X0176000Y0096000D01*
X0176000Y0086000D02*
X0361000Y0086000D01*
X0326000Y0061000D02*
X0326000Y0011000D01*
X0281000Y0021000D02*
X0281000Y0061000D01*
X0251000Y0076000D02*
X0246000Y0076000D01*
X0241000Y0071000D01*
X0241000Y0016000D01*
X0226000Y0021000D02*
X0226000Y0061000D01*
X0196000Y0076000D02*
X0191000Y0076000D01*
X0186000Y0071000D01*
X0186000Y0041000D01*
X0181000Y0036000D01*
X0126000Y0046000D02*
X0016000Y0046000D01*
X0026000Y0056000D02*
X0066000Y0056000D01*
X0066000Y0086000D02*
X0031000Y0086000D01*
X0026000Y0116000D02*
X0066000Y0116000D01*
X0091000Y0136000D02*
X0031000Y0136000D01*
X0016000Y0151000D02*
X0126000Y0151000D01*
X0096000Y0131000D02*
X0091000Y0136000D01*
X0096000Y0131000D02*
X0096000Y0126000D01*
X0066000Y0161000D02*
X0026000Y0161000D01*
X0031000Y0191000D02*
X0066000Y0191000D01*
X0066000Y0221000D02*
X0026000Y0221000D01*
X0031000Y0241000D02*
X0091000Y0241000D01*
X0096000Y0236000D01*
X0096000Y0231000D01*
X0126000Y0256000D02*
X0016000Y0256000D01*
X0026000Y0266000D02*
X0066000Y0266000D01*
X0066000Y0296000D02*
X0031000Y0296000D01*
X0026000Y0326000D02*
X0066000Y0326000D01*
X0091000Y0346000D02*
X0096000Y0341000D01*
X0096000Y0336000D01*
X0251000Y0411000D02*
X0256000Y0416000D01*
X0286000Y0416000D01*
X0291000Y0421000D01*
X0361000Y0421000D01*
X0361000Y0431000D02*
X0256000Y0431000D01*
X0251000Y0426000D01*
X0251000Y0421000D01*
X0256000Y0441000D02*
X0361000Y0441000D01*
X0361000Y0451000D02*
X0371000Y0451000D01*
X0376000Y0446000D01*
X0506000Y0446000D01*
X0491000Y0456000D02*
X0421000Y0456000D01*
X0416000Y0461000D01*
X0416000Y0466000D01*
X0446000Y0476000D02*
X0496000Y0476000D01*
X0491000Y0506000D02*
X0446000Y0506000D01*
X0446000Y0536000D02*
X0496000Y0536000D01*
X0506000Y0551000D02*
X0376000Y0551000D01*
X0371000Y0556000D01*
X0361000Y0556000D01*
X0361000Y0546000D02*
X0256000Y0546000D01*
X0256000Y0536000D02*
X0361000Y0536000D01*
X0361000Y0526000D02*
X0256000Y0526000D01*
X0256000Y0516000D02*
X0361000Y0516000D01*
X0361000Y0506000D02*
X0256000Y0506000D01*
X0256000Y0496000D02*
X0361000Y0496000D01*
X0361000Y0486000D02*
X0256000Y0486000D01*
X0256000Y0476000D02*
X0361000Y0476000D01*
X0361000Y0391000D02*
X0346000Y0391000D01*
X0336000Y0381000D01*
X0261000Y0381000D01*
X0361000Y0346000D02*
X0371000Y0346000D01*
X0376000Y0341000D01*
X0506000Y0341000D01*
X0491000Y0351000D02*
X0421000Y0351000D01*
X0416000Y0356000D01*
X0416000Y0361000D01*
X0446000Y0371000D02*
X0496000Y0371000D01*
X0491000Y0401000D02*
X0446000Y0401000D01*
X0446000Y0431000D02*
X0496000Y0431000D01*
X0496000Y0326000D02*
X0446000Y0326000D01*
X0446000Y0296000D02*
X0491000Y0296000D01*
X0496000Y0266000D02*
X0446000Y0266000D01*
X0421000Y0246000D02*
X0491000Y0246000D01*
X0421000Y0246000D02*
X0416000Y0251000D01*
X0416000Y0256000D01*
X0446000Y0116000D02*
X0496000Y0116000D01*
X0491000Y0086000D02*
X0446000Y0086000D01*
X0446000Y0056000D02*
X0496000Y0056000D01*
X0481000Y0036000D02*
X0421000Y0036000D01*
X0416000Y0041000D01*
X0416000Y0046000D01*
X0086000Y0541000D02*
X0091000Y0546000D01*
X0096000Y0546000D01*
X0456000Y0571000D02*
X0471000Y0571000D01*
X0476000Y0561000D02*
X0466000Y0561000D01*
X0461000Y0566000D02*
X0481000Y0566000D01*
D20*
X0481000Y0566000D03*
X0476000Y0561000D03*
X0471000Y0571000D03*
X0466000Y0561000D03*
X0461000Y0566000D03*
X0456000Y0571000D03*
X0496000Y0536000D03*
X0506000Y0551000D03*
X0511000Y0556000D03*
X0491000Y0506000D03*
X0496000Y0476000D03*
X0491000Y0456000D03*
X0506000Y0446000D03*
X0511000Y0451000D03*
X0496000Y0431000D03*
X0491000Y0401000D03*
X0496000Y0371000D03*
X0491000Y0351000D03*
X0506000Y0341000D03*
X0511000Y0346000D03*
X0496000Y0326000D03*
X0491000Y0296000D03*
X0496000Y0266000D03*
X0491000Y0246000D03*
X0506000Y0236000D03*
X0511000Y0241000D03*
X0496000Y0221000D03*
X0491000Y0191000D03*
X0496000Y0161000D03*
X0491000Y0141000D03*
X0506000Y0131000D03*
X0511000Y0136000D03*
X0496000Y0116000D03*
X0491000Y0086000D03*
X0496000Y0056000D03*
X0481000Y0036000D03*
X0326000Y0011000D03*
X0286000Y0006000D03*
X0281000Y0021000D03*
X0241000Y0016000D03*
X0226000Y0021000D03*
X0176000Y0086000D03*
X0176000Y0096000D03*
X0176000Y0106000D03*
X0176000Y0116000D03*
X0176000Y0126000D03*
X0176000Y0161000D03*
X0176000Y0171000D03*
X0176000Y0181000D03*
X0176000Y0191000D03*
X0176000Y0201000D03*
X0176000Y0211000D03*
X0176000Y0221000D03*
X0176000Y0231000D03*
X0176000Y0266000D03*
X0176000Y0276000D03*
X0256000Y0441000D03*
X0256000Y0476000D03*
X0256000Y0486000D03*
X0256000Y0496000D03*
X0256000Y0506000D03*
X0256000Y0516000D03*
X0256000Y0526000D03*
X0256000Y0536000D03*
X0256000Y0546000D03*
X0081000Y0551000D03*
X0031000Y0531000D03*
X0026000Y0526000D03*
X0031000Y0506000D03*
X0026000Y0476000D03*
X0016000Y0466000D03*
X0031000Y0451000D03*
X0026000Y0431000D03*
X0031000Y0401000D03*
X0026000Y0371000D03*
X0016000Y0361000D03*
X0031000Y0346000D03*
X0026000Y0326000D03*
X0031000Y0296000D03*
X0026000Y0266000D03*
X0016000Y0256000D03*
X0031000Y0241000D03*
X0026000Y0221000D03*
X0031000Y0191000D03*
X0026000Y0161000D03*
X0016000Y0151000D03*
X0031000Y0136000D03*
X0026000Y0116000D03*
X0031000Y0086000D03*
X0026000Y0056000D03*
X0016000Y0046000D03*
D21*
X0286000Y0071000D02*
X0286000Y0006000D01*
X0286000Y0071000D02*
X0291000Y0076000D01*
X0296000Y0076000D01*
X0391000Y0136000D02*
X0511000Y0136000D01*
X0511000Y0241000D02*
X0391000Y0241000D01*
X0391000Y0346000D02*
X0511000Y0346000D01*
X0511000Y0451000D02*
X0391000Y0451000D01*
X0391000Y0556000D02*
X0511000Y0556000D01*
M02*
